<svg xmlns="http://www.w3.org/2000/svg" xmlns:xlink="http://www.w3.org/1999/xlink" width="500" zoomAndPan="magnify" viewBox="0 0 375 374.999991" height="500" preserveAspectRatio="xMidYMid meet" version="1.0"><defs><clipPath id="2fff8d7c29"><path d="M 125 112.632812 L 265 112.632812 L 265 262.632812 L 125 262.632812 Z M 125 112.632812 " clip-rule="nonzero"/></clipPath></defs><path fill="#ffffff" d="M 57.742188 179.433594 L 47.222656 174.464844 L 126.96875 174.464844 C 130.234375 174.464844 133.1875 172.515625 134.472656 169.515625 L 141.191406 153.785156 L 63.742188 153.777344 C 50.707031 153.777344 38.925781 161.523438 33.769531 173.480469 L 12.621094 223.101562 C 8.039062 233.855469 15.933594 245.789062 27.632812 245.789062 L 96.488281 245.789062 C 99.753906 245.789062 102.707031 243.839844 103.992188 240.839844 L 110.835938 224.824219 L 38.367188 224.824219 L 57.742188 179.4375 Z M 57.742188 179.433594 " fill-opacity="1" fill-rule="nonzero"/><path fill="#ffffff" d="M 279.867188 153.78125 C 266.769531 153.78125 254.9375 161.605469 249.828125 173.65625 L 246.414062 181.707031 L 243.972656 187.445312 C 239.40625 198.195312 247.304688 210.113281 258.992188 210.113281 L 313.953125 210.113281 L 307.664062 224.824219 L 233.429688 224.824219 C 230.164062 224.824219 227.21875 226.765625 225.933594 229.757812 L 219.035156 245.792969 L 302.863281 245.792969 C 315.9375 245.792969 327.746094 238 332.875 225.992188 L 339.019531 211.609375 C 343.613281 200.859375 335.714844 188.914062 324.015625 188.914062 L 269.109375 188.914062 L 273.140625 179.441406 L 262.878906 174.46875 L 349.496094 174.46875 C 352.769531 174.46875 355.722656 172.515625 357.003906 169.507812 L 363.695312 153.785156 L 279.871094 153.785156 Z M 279.867188 153.78125 " fill-opacity="1" fill-rule="nonzero"/><g clip-path="url(#2fff8d7c29)"><path fill="#ffffff" d="M 255.519531 132.8125 C 255.449219 132.8125 255.386719 132.75 255.386719 132.679688 C 255.390625 132.171875 255.40625 130.371094 255.410156 130.035156 C 255.410156 129.566406 255.082031 129.1875 254.671875 129.1875 C 254.4375 129.1875 254.226562 129.316406 254.089844 129.515625 C 254.019531 129.617188 253.179688 130.839844 252.664062 131.589844 C 252.632812 131.628906 252.589844 131.652344 252.539062 131.652344 L 211.667969 131.652344 C 211.507812 131.652344 211.378906 131.523438 211.375 131.363281 L 211.292969 130.261719 C 211.289062 130.074219 211.460938 129.929688 211.644531 129.964844 L 213.734375 130.160156 C 213.914062 130.175781 214.078125 130.058594 214.121094 129.882812 L 215.644531 123.714844 C 215.675781 123.570312 215.597656 123.425781 215.460938 123.375 L 214.046875 122.847656 C 213.964844 122.816406 213.902344 122.746094 213.882812 122.664062 C 213.625 121.589844 211.53125 114.40625 201.445312 112.800781 C 196.535156 112.019531 193.320312 114.113281 191.605469 115.785156 C 190.84375 116.527344 190.214844 117.394531 189.722656 118.339844 L 189.121094 119.664062 C 189.070312 119.765625 188.835938 121.011719 188.835938 121.125 L 189.152344 127.246094 C 189.152344 127.457031 189.253906 127.652344 189.417969 127.78125 L 191.628906 128.738281 L 190.40625 130.761719 C 190.367188 130.910156 190.230469 131.011719 190.078125 131.011719 C 190.078125 131.011719 187.476562 131.078125 186.191406 131.132812 C 183.785156 131.226562 178.429688 134.160156 174.480469 142.601562 C 170.601562 150.886719 169.964844 152.269531 169.964844 152.269531 C 169.882812 152.425781 169.714844 152.527344 169.535156 152.515625 L 165.933594 152.527344 C 165.710938 152.527344 165.472656 152.707031 165.378906 152.90625 L 159.777344 168.773438 C 159.683594 168.972656 159.738281 169.277344 159.886719 169.445312 L 163.796875 171.890625 C 163.90625 171.980469 163.953125 172.125 163.917969 172.257812 L 161.875 178.289062 C 161.851562 178.421875 161.800781 178.554688 161.730469 178.671875 L 159.019531 181.058594 C 158.949219 181.121094 158.886719 181.195312 158.847656 181.28125 C 158.828125 181.328125 158.808594 181.378906 158.792969 181.425781 L 155.066406 190.976562 C 155.015625 191.148438 154.859375 191.261719 154.6875 191.261719 L 152.59375 191.273438 C 152.066406 191.273438 151.628906 191.679688 151.582031 192.203125 L 150.328125 206.476562 C 150.308594 206.726562 150.273438 206.980469 150.230469 207.230469 L 149.242188 212.894531 C 149.203125 213.027344 149.132812 213.144531 149.035156 213.238281 L 145.550781 215.898438 C 143.953125 217.425781 141.816406 220.207031 140.769531 222.148438 L 129.164062 246.625 C 128.882812 247.144531 128.660156 248.042969 128.671875 248.636719 L 129.496094 250.105469 C 129.507812 250.628906 129.296875 252.949219 129.058594 253.414062 L 125.167969 260.207031 C 125.082031 260.375 125.074219 260.570312 125.152344 260.742188 L 125.34375 261.183594 L 125.925781 262.339844 L 137.726562 262.359375 C 138.457031 262.425781 139.265625 261.488281 139.289062 260.484375 L 139.929688 252.394531 L 139.761719 251.179688 L 162.261719 224.777344 C 162.851562 224.0625 163.648438 222.800781 164.046875 221.964844 L 174.769531 198.324219 C 174.894531 198.066406 175.121094 197.867188 175.394531 197.777344 L 176.074219 197.558594 C 176.484375 197.421875 176.9375 197.554688 177.214844 197.886719 C 178.152344 199.015625 180.359375 202.757812 181.433594 204.320312 C 182.320312 205.617188 186.734375 212 188.660156 214.101562 C 189.191406 214.679688 190.832031 215.335938 191.566406 215.78125 C 191.804688 215.929688 191.882812 216.238281 191.746094 216.480469 L 185.320312 227.761719 L 182.484375 241.085938 C 182.382812 241.398438 182.308594 241.71875 182.261719 242.039062 L 179.691406 251.292969 C 179.710938 252.460938 178.8125 253.074219 178.738281 254.453125 L 177.804688 261.214844 C 177.792969 261.421875 177.957031 261.597656 178.167969 261.597656 L 194.039062 261.683594 L 194.050781 261.683594 C 194.074219 261.683594 195.171875 261.667969 195.820312 261.644531 C 195.945312 261.636719 196.152344 261.617188 196.292969 261.601562 C 198.40625 261.332031 199.855469 261.042969 200.839844 260.710938 C 200.882812 260.695312 200.925781 260.679688 200.972656 260.664062 C 201.65625 260.421875 202.097656 260.152344 202.386719 259.855469 C 202.925781 259.289062 203.550781 258.597656 203.644531 257.707031 C 203.648438 257.671875 203.652344 257.640625 203.65625 257.605469 C 203.65625 257.585938 203.65625 257.5625 203.65625 257.539062 C 203.65625 257.492188 203.65625 257.445312 203.65625 257.394531 C 203.65625 257.390625 203.65625 257.378906 203.65625 257.375 C 203.65625 257.332031 203.652344 257.285156 203.644531 257.246094 C 203.625 257.066406 203.585938 256.933594 203.539062 256.824219 C 203.539062 256.820312 203.535156 256.816406 203.53125 256.8125 C 203.515625 256.777344 203.5 256.75 203.480469 256.71875 C 203.46875 256.703125 203.460938 256.683594 203.445312 256.667969 C 203.355469 256.542969 203.269531 256.496094 203.257812 256.488281 C 203.214844 256.464844 203.167969 256.441406 203.117188 256.421875 L 195.746094 254.199219 C 195.273438 254.054688 194.859375 253.761719 194.566406 253.367188 L 192.585938 250.441406 C 192.492188 250.234375 192.535156 249.988281 192.695312 249.832031 L 196.550781 246.035156 C 196.683594 245.90625 196.785156 245.753906 196.851562 245.585938 L 208.730469 217.585938 C 209.285156 215.804688 209.101562 213.804688 208.730469 211.691406 C 208.453125 210.128906 204.453125 203.417969 203.40625 201.5625 C 202.484375 199.925781 196.746094 189.890625 195.382812 187.515625 C 195.226562 187.246094 195.027344 187.007812 194.773438 186.832031 C 194.589844 186.707031 194.410156 186.546875 194.265625 186.375 C 194.121094 186.207031 194.015625 186.007812 193.957031 185.792969 L 193.503906 178.824219 C 193.460938 178.671875 193.566406 178.519531 193.726562 178.507812 L 195.792969 178.335938 C 195.988281 178.316406 196.164062 178.203125 196.253906 178.03125 L 203.410156 164.589844 C 203.507812 164.40625 203.503906 164.183594 203.394531 164.003906 L 201.929688 162.191406 C 201.832031 162.023438 201.828125 161.8125 201.925781 161.644531 L 204.117188 159.277344 C 204.207031 159.113281 204.410156 159.058594 204.574219 159.148438 L 210.402344 162.433594 C 210.757812 162.632812 211.15625 162.75 211.5625 162.75 C 213.179688 162.738281 215.84375 161.78125 217.230469 160.933594 C 217.59375 160.710938 217.894531 160.390625 218.09375 160.011719 L 220.953125 153.335938 C 220.992188 153.25 221.117188 153.261719 221.132812 153.351562 L 221.933594 157.066406 C 221.984375 157.300781 222.191406 157.429688 222.421875 157.378906 L 230.839844 155.507812 C 231.0625 155.457031 231.199219 155.238281 231.152344 155.015625 L 229.167969 146.632812 C 229.144531 146.519531 229.164062 146.398438 229.226562 146.300781 L 230.046875 145.03125 C 230.148438 144.871094 230.226562 144.699219 230.273438 144.523438 L 231.261719 140 C 231.289062 139.882812 231.390625 139.796875 231.511719 139.796875 L 254.796875 139.828125 C 255.125 139.828125 255.378906 139.574219 255.378906 139.246094 L 255.378906 135.292969 C 255.378906 135.21875 255.441406 135.15625 255.515625 135.15625 L 264.492188 135.15625 C 264.652344 135.15625 264.785156 135.027344 264.785156 134.867188 L 264.785156 133.085938 C 264.785156 132.929688 264.65625 132.796875 264.492188 132.796875 L 255.511719 132.796875 Z M 255.519531 132.8125 " fill-opacity="1" fill-rule="nonzero"/></g></svg>