<svg xmlns="http://www.w3.org/2000/svg" xmlns:xlink="http://www.w3.org/1999/xlink" width="500" zoomAndPan="magnify" viewBox="0 0 375 374.999991" height="500" preserveAspectRatio="xMidYMid meet" version="1.0"><path fill="#ffffff" d="M 73.585938 291.226562 C 49.066406 291.011719 49.566406 290.652344 49.496094 291.796875 C 49.351562 293.371094 52.5 292.15625 53.214844 294.726562 C 53.285156 297.015625 53.070312 326.109375 53.070312 327.898438 C 53.070312 328.113281 52.855469 329.183594 51.570312 329.828125 C 51.210938 330.042969 50.996094 330.398438 51.140625 330.828125 C 51.210938 331.1875 51.570312 331.472656 51.996094 331.472656 L 52.210938 331.472656 C 56 331.472656 61.078125 331.542969 64.007812 332.117188 C 66.082031 332.472656 68.082031 332.6875 69.941406 332.6875 C 84.738281 332.6875 92.53125 321.679688 92.601562 310.742188 C 92.671875 301.449219 86.738281 291.367188 73.585938 291.226562 Z M 60.648438 294.585938 C 86.738281 292.941406 87.167969 312.171875 83.238281 321.605469 C 81.164062 326.539062 73.945312 329.46875 68.226562 329.46875 C 64.652344 329.46875 62.007812 328.398438 60.863281 326.398438 Z M 60.648438 294.585938 " fill-opacity="1" fill-rule="nonzero"/><path fill="#ffffff" d="M 108.1875 311.671875 C 108.1875 325.394531 119.695312 332.617188 131.132812 332.617188 C 142.140625 332.617188 153.9375 324.96875 153.9375 310.742188 C 153.9375 283.578125 108.1875 282.863281 108.1875 311.671875 Z M 116.40625 311.597656 C 116.40625 301.519531 119.410156 293.441406 129.773438 293.441406 C 137.925781 293.441406 145.429688 301.664062 145.429688 310.667969 C 145.574219 318.746094 143.785156 328.613281 133.992188 329.542969 C 123.839844 329.46875 117.90625 323.394531 116.40625 311.597656 Z M 116.40625 311.597656 " fill-opacity="1" fill-rule="nonzero"/><path fill="#ffffff" d="M 203.40625 290.652344 C 202.476562 290.941406 201.402344 291.152344 200.6875 291.152344 C 199.972656 291.152344 173.023438 291.082031 171.378906 291.082031 C 170.234375 290.511719 168.519531 289.796875 168.234375 291.011719 L 167.089844 295.945312 C 167.019531 296.371094 167.234375 296.800781 167.589844 296.945312 C 168.019531 297.085938 168.449219 296.945312 168.664062 296.585938 C 169.164062 295.871094 169.878906 295.300781 170.878906 294.941406 C 173.453125 294.871094 180.457031 294.800781 182.03125 294.800781 L 181.886719 328.113281 C 181.886719 328.183594 181.816406 329.328125 180.746094 329.972656 C 179.957031 330.398438 180.316406 331.613281 181.246094 331.613281 C 181.246094 331.613281 190.824219 331.542969 190.824219 331.542969 C 191.753906 331.542969 192.039062 330.257812 191.253906 329.898438 C 190.464844 329.542969 190.039062 328.96875 189.964844 328.183594 C 189.894531 326.609375 189.679688 300.234375 189.609375 294.800781 L 199.402344 295.015625 C 199.472656 295.015625 201.546875 295.15625 202.261719 297.160156 C 202.40625 297.585938 202.832031 297.800781 203.261719 297.730469 C 204.191406 297.585938 204.046875 296.945312 204.191406 292.796875 C 204.40625 292.371094 204.550781 291.726562 204.476562 291.296875 C 204.476562 290.867188 203.90625 290.511719 203.40625 290.652344 Z M 203.40625 290.652344 " fill-opacity="1" fill-rule="nonzero"/><path fill="#ffffff" d="M 258.09375 319.390625 C 255.660156 319.320312 250.65625 319.320312 249.585938 319.320312 C 249.585938 319.25 237.503906 290.226562 237.503906 290.226562 C 237.148438 289.511719 236.144531 289.511719 235.859375 290.226562 L 220.132812 327.898438 C 220.132812 327.898438 219.417969 329.257812 217.703125 330.042969 C 216.84375 330.472656 217.128906 331.6875 218.058594 331.6875 C 218.132812 331.6875 225.207031 331.6875 225.207031 331.6875 C 226.210938 331.6875 226.421875 330.328125 225.496094 329.972656 C 224.992188 329.757812 224.78125 329.398438 224.921875 328.828125 C 225.421875 327.113281 226.78125 323.464844 227.066406 322.609375 L 242.722656 322.679688 L 245.796875 329.828125 C 245.796875 329.828125 245.867188 329.972656 245.726562 330.113281 C 245.222656 330.6875 245.582031 331.542969 246.367188 331.613281 C 246.441406 331.613281 255.304688 331.757812 255.304688 331.757812 C 255.804688 331.757812 256.234375 331.328125 256.234375 330.898438 C 256.234375 330.542969 255.949219 330.183594 255.589844 330.042969 C 254.445312 329.46875 253.945312 328.96875 250.871094 322.679688 C 253.515625 322.75 254.089844 321.535156 258.019531 321.035156 C 258.519531 320.964844 258.808594 320.605469 258.808594 320.105469 C 258.949219 319.75 258.519531 319.390625 258.09375 319.390625 Z M 235.214844 302.234375 L 241.507812 319.320312 L 228.355469 319.460938 Z M 235.214844 302.234375 " fill-opacity="1" fill-rule="nonzero"/><path fill="#ffffff" d="M 314.066406 322.535156 C 313.207031 324.394531 312.136719 326.183594 309.492188 326.324219 C 308.132812 326.398438 300.699219 326.683594 296.050781 326.609375 C 323.929688 305.878906 316.496094 290.226562 299.910156 290.226562 C 296.265625 290.226562 292.621094 291.082031 289.832031 292.582031 C 289.546875 292.726562 289.402344 293.011719 289.402344 293.296875 C 289.332031 294.226562 289.546875 296.15625 289.976562 298.945312 C 290.046875 299.375 290.332031 299.660156 290.761719 299.660156 C 291.191406 299.660156 291.546875 299.445312 291.691406 299.089844 C 293.261719 294.726562 296.550781 293.15625 298.980469 293.15625 C 302.554688 293.15625 306.273438 296.15625 306.488281 301.804688 C 306.988281 314.457031 291.191406 326.398438 287.6875 329.683594 C 287.117188 330.183594 286.613281 330.757812 287.117188 331.328125 C 287.117188 332.402344 288.546875 332.542969 288.832031 331.6875 C 291.832031 331.6875 308.347656 331.542969 311.421875 331.613281 C 313.636719 331.757812 314.710938 330.542969 314.78125 329.113281 L 315.851562 323.109375 C 315.925781 322.035156 314.496094 321.605469 314.066406 322.535156 Z M 314.066406 322.535156 " fill-opacity="1" fill-rule="nonzero"/><path fill="#ffffff" d="M 299.984375 89.707031 C 299.054688 47.101562 298.980469 56.324219 299.910156 43.027344 C 299.984375 42.238281 299.339844 41.523438 298.554688 41.523438 C 233.429688 37.164062 231 36.664062 225.921875 36.664062 C 137.136719 36.664062 183.746094 35.234375 65.222656 42.023438 C 64.4375 42.097656 63.792969 42.738281 63.863281 43.527344 C 71.511719 186.425781 71.226562 163.121094 67.296875 258.34375 C 67.296875 259.058594 67.726562 259.628906 68.441406 259.773438 C 77.304688 261.84375 75.730469 260.988281 96.460938 261.058594 C 96.460938 261.058594 135.277344 256.914062 135.277344 256.914062 C 135.492188 256.914062 188.894531 265.492188 189.035156 265.492188 C 189.109375 265.492188 189.109375 265.492188 189.179688 265.492188 C 251.730469 260.34375 233.859375 261.628906 274.175781 259.414062 L 297.910156 264.0625 C 298.839844 264.273438 299.695312 263.558594 299.695312 262.632812 C 299.054688 216.164062 299.984375 89.707031 299.984375 89.707031 Z M 203.691406 86.273438 C 203.835938 86.203125 204.121094 86.203125 204.40625 86.0625 L 221.277344 82.34375 C 229.925781 80.199219 231.214844 79.699219 238.578125 76.339844 C 242.007812 77.480469 251.371094 82.558594 253.730469 85.417969 C 255.304688 87.347656 255.160156 87.777344 254.730469 89.847656 C 254.660156 90.277344 254.519531 90.707031 254.445312 91.207031 C 254.445312 91.207031 254.445312 91.277344 254.445312 91.351562 L 250.730469 119.660156 C 247.082031 119.800781 246.726562 119.515625 245.726562 118.585938 C 245.296875 118.230469 244.796875 117.730469 243.867188 117.15625 C 238.289062 113.511719 219.988281 100.359375 214.269531 95.78125 L 202.90625 86.917969 L 202.976562 86.847656 C 203.121094 86.703125 203.191406 86.5625 203.261719 86.417969 C 203.332031 86.347656 203.621094 86.347656 203.691406 86.273438 Z M 230 228.816406 C 229.640625 228.460938 88.167969 82.273438 88.097656 82.058594 L 100.464844 72.835938 L 273.175781 184.355469 C 271.746094 188.355469 271.175781 192.933594 270.316406 196.722656 C 267.3125 210.160156 263.382812 216.023438 257.304688 228.746094 C 248.585938 229.105469 230.640625 229.03125 230 228.816406 Z M 101.324219 189.285156 C 102.894531 185.570312 105.113281 179.5625 106.96875 176.5625 C 115.976562 182.066406 151.292969 216.664062 154.367188 221.3125 C 152.648438 221.957031 145.359375 222.957031 133.207031 227.675781 C 125.484375 230.675781 118.265625 233.464844 111.261719 231.175781 C 110.542969 230.964844 108.6875 229.390625 105.898438 227.101562 C 100.824219 222.886719 96.246094 219.8125 93.601562 218.238281 C 89.097656 215.59375 89.8125 216.164062 101.324219 189.285156 Z M 101.324219 189.285156 " fill-opacity="1" fill-rule="nonzero"/><path fill="#ffffff" d="M 81.878906 189.574219 C 80.808594 133.886719 82.023438 164.195312 75.445312 41.453125 L 65.222656 42.023438 C 64.4375 42.097656 63.792969 42.738281 63.863281 43.527344 L 69.296875 145.464844 C 70.371094 199.9375 70.65625 176.0625 67.296875 258.34375 C 67.296875 259.058594 67.726562 259.628906 68.441406 259.773438 C 73.445312 260.914062 75.515625 261.203125 79.019531 261.203125 C 78.875 260.84375 78.734375 264.917969 81.878906 189.574219 Z M 81.878906 189.574219 " fill-opacity="1" fill-rule="nonzero"/><path fill="#ffffff" d="M 161.65625 224.386719 C 161.65625 224.386719 167.664062 222.382812 162.730469 217.09375 C 142.640625 195.21875 130.417969 187.355469 118.765625 174.917969 C 113.90625 169.769531 106.898438 176.492188 106.898438 176.492188 C 152.363281 215.878906 143.214844 210.160156 151.292969 217.738281 C 152.363281 218.738281 153.222656 219.523438 154.292969 221.242188 C 154.078125 221.3125 153.152344 221.527344 151.863281 221.882812 C 132.921875 226.53125 130.132812 229.675781 121.695312 231.464844 C 129.558594 237.753906 143.5 230.105469 153.363281 226.746094 C 155.796875 225.957031 158.941406 225.101562 161.65625 224.386719 Z M 161.65625 224.386719 " fill-opacity="1" fill-rule="nonzero"/><path fill="#ffffff" d="M 281.824219 172.773438 C 281.824219 172.773438 116.691406 70.121094 116.691406 70.121094 C 111.1875 66.6875 105.183594 68.332031 100.464844 72.90625 L 273.175781 184.425781 C 271.746094 188.429688 271.175781 193.003906 270.316406 196.792969 C 267.3125 210.230469 263.382812 216.09375 257.304688 228.816406 C 257.304688 228.816406 272.960938 231.75 277.75 221.457031 C 288.972656 198.222656 286.328125 193.863281 289.046875 186.5 C 288.6875 182.28125 289.261719 177.417969 281.824219 172.773438 Z M 281.824219 172.773438 " fill-opacity="1" fill-rule="nonzero"/><path fill="#ffffff" d="M 254.445312 91.277344 C 254.445312 91.277344 254.445312 91.351562 254.445312 91.421875 L 250.730469 119.730469 C 250.730469 119.730469 265.382812 128.59375 267.242188 114.011719 L 270.246094 90.0625 C 270.246094 89.992188 270.246094 89.992188 270.246094 89.921875 C 270.386719 89.347656 270.460938 88.921875 270.601562 88.492188 C 271.101562 86.417969 271.246094 85.917969 269.601562 83.988281 C 267.886719 81.914062 260.378906 76.480469 254.730469 72.980469 C 249.441406 69.476562 243.078125 73.695312 243.078125 73.695312 C 241.507812 74.835938 240.078125 75.910156 238.578125 76.339844 C 242.4375 78.339844 252.230469 83.558594 253.730469 85.417969 C 255.304688 87.347656 255.160156 87.777344 254.730469 89.847656 C 254.660156 90.277344 254.589844 90.707031 254.445312 91.277344 Z M 254.445312 91.277344 " fill-opacity="1" fill-rule="nonzero"/></svg>