<svg xmlns="http://www.w3.org/2000/svg" xmlns:xlink="http://www.w3.org/1999/xlink" width="500" zoomAndPan="magnify" viewBox="0 0 375 374.999991" height="500" preserveAspectRatio="xMidYMid meet" version="1.0"><path fill="#ffffff" d="M 190.480469 169.246094 L 221.128906 169.246094 L 223.585938 155.003906 L 174.933594 155.003906 L 163.40625 220.105469 L 181.519531 220.105469 L 185.824219 195.449219 L 210.609375 195.449219 L 213.082031 181.207031 L 188.378906 181.207031 Z M 190.480469 169.246094 " fill-opacity="1" fill-rule="nonzero"/><path fill="#ffffff" d="M 229.933594 155.003906 L 218.40625 220.105469 L 236.421875 220.105469 L 247.949219 155.003906 Z M 229.933594 155.003906 " fill-opacity="1" fill-rule="nonzero"/><path fill="#ffffff" d="M 292.414062 181.207031 L 267.710938 181.207031 L 269.8125 169.246094 L 300.464844 169.246094 L 302.933594 155.003906 L 254.265625 155.003906 L 242.738281 220.105469 L 260.855469 220.105469 L 265.15625 195.449219 L 289.945312 195.449219 Z M 292.414062 181.207031 " fill-opacity="1" fill-rule="nonzero"/><path fill="#ffffff" d="M 318.039062 154.90625 L 283.925781 220.089844 L 301.300781 220.089844 L 306.796875 208.683594 L 329.382812 208.683594 L 330.84375 220.089844 L 348.777344 220.089844 L 338.257812 154.90625 Z M 313.285156 195.082031 L 324.257812 171.613281 L 324.628906 171.613281 L 327.652344 195.082031 Z M 313.285156 195.082031 " fill-opacity="1" fill-rule="nonzero"/><path fill="#ffffff" d="M 90.503906 250.898438 C 125.550781 250.898438 153.964844 222.539062 153.964844 187.554688 C 153.964844 152.570312 125.550781 124.210938 90.503906 124.210938 C 55.457031 124.210938 27.042969 152.570312 27.042969 187.554688 C 27.042969 222.539062 55.457031 250.898438 90.503906 250.898438 Z M 90.503906 250.898438 " fill-opacity="1" fill-rule="nonzero"/><path fill="#000000" d="M 132.230469 197.742188 L 133.847656 197.742188 L 133.847656 198.027344 L 133.207031 198.027344 L 133.207031 199.402344 L 132.882812 199.402344 L 132.882812 198.027344 L 132.242188 198.027344 L 132.242188 197.742188 Z M 56.542969 204.105469 L 52.894531 204.105469 C 52.074219 204.105469 51.675781 203.652344 51.675781 202.761719 L 51.675781 201.316406 C 51.675781 200.902344 51.773438 200.5625 52.015625 200.292969 C 52.230469 200.027344 52.527344 199.898438 52.910156 199.898438 L 55.777344 199.898438 C 56.460938 199.898438 56.914062 200.222656 57.113281 200.890625 L 57.511719 202.277344 L 60.136719 202.277344 L 60.136719 200.75 C 60.136719 199.726562 59.796875 198.878906 59.113281 198.199219 C 58.417969 197.515625 57.566406 197.175781 56.574219 197.175781 L 52.328125 197.175781 C 51.335938 197.175781 50.453125 197.53125 49.746094 198.238281 C 49.046875 198.949219 48.695312 199.800781 48.695312 200.789062 L 48.695312 203.257812 C 48.695312 204.261719 49.046875 205.128906 49.746094 205.835938 C 50.46875 206.542969 51.335938 206.898438 52.328125 206.898438 L 55.992188 206.898438 C 56.800781 206.898438 57.210938 207.367188 57.210938 208.289062 L 57.210938 210.15625 C 57.210938 210.554688 57.097656 210.894531 56.886719 211.164062 C 56.660156 211.433594 56.359375 211.5625 55.992188 211.5625 L 53.082031 211.5625 C 52.34375 211.5625 51.902344 211.21875 51.71875 210.582031 L 51.335938 209.011719 L 48.695312 209.011719 L 48.695312 210.710938 C 48.695312 211.746094 49.035156 212.59375 49.714844 213.273438 C 50.398438 213.957031 51.25 214.296875 52.269531 214.296875 L 56.574219 214.296875 C 57.566406 214.296875 58.433594 213.941406 59.144531 213.234375 C 59.839844 212.539062 60.195312 211.675781 60.195312 210.652344 L 60.195312 207.761719 C 60.195312 206.769531 59.839844 205.921875 59.128906 205.199219 C 58.390625 204.476562 57.539062 204.105469 56.542969 204.105469 Z M 74.0625 198.253906 C 74.773438 198.949219 75.128906 199.8125 75.128906 200.789062 L 75.128906 204.390625 C 75.128906 205.394531 74.773438 206.246094 74.0625 206.957031 C 73.339844 207.664062 72.472656 208.019531 71.464844 208.019531 L 66.738281 208.019531 L 66.738281 214.296875 L 63.714844 214.296875 L 63.714844 197.191406 L 71.464844 197.191406 C 72.472656 197.191406 73.339844 197.53125 74.0625 198.253906 Z M 72.089844 201.34375 C 72.089844 200.933594 71.976562 200.605469 71.75 200.335938 C 71.523438 200.066406 71.222656 199.941406 70.882812 199.941406 L 66.753906 199.941406 L 66.753906 205.253906 L 70.882812 205.253906 C 71.238281 205.253906 71.535156 205.113281 71.75 204.859375 C 71.976562 204.589844 72.089844 204.261719 72.089844 203.851562 Z M 102.246094 207.222656 L 105.253906 214.296875 L 102.03125 214.296875 L 99.234375 207.605469 L 96.351562 207.605469 L 96.351562 214.296875 L 93.316406 214.296875 L 93.316406 197.191406 L 100.894531 197.191406 C 101.917969 197.191406 102.769531 197.546875 103.480469 198.253906 C 104.191406 198.949219 104.546875 199.8125 104.546875 200.789062 L 104.546875 203.78125 C 104.546875 204.558594 104.332031 205.269531 103.90625 205.890625 C 103.480469 206.488281 102.914062 206.925781 102.246094 207.222656 Z M 101.519531 201.34375 C 101.519531 200.933594 101.421875 200.605469 101.195312 200.335938 C 100.980469 200.066406 100.683594 199.941406 100.328125 199.941406 L 96.367188 199.941406 L 96.367188 204.828125 L 100.328125 204.828125 C 100.683594 204.828125 100.96875 204.703125 101.195312 204.445312 C 101.40625 204.175781 101.519531 203.851562 101.519531 203.441406 Z M 106.476562 199.941406 L 110.835938 199.941406 L 110.835938 214.28125 L 113.871094 214.28125 L 113.871094 199.941406 L 118.273438 199.941406 L 118.273438 197.175781 L 106.488281 197.175781 L 106.488281 199.941406 Z M 128.339844 204.105469 L 124.691406 204.105469 C 123.882812 204.105469 123.46875 203.652344 123.46875 202.761719 L 123.46875 201.316406 C 123.46875 200.902344 123.582031 200.5625 123.796875 200.292969 C 124.007812 200.027344 124.320312 199.898438 124.691406 199.898438 L 127.574219 199.898438 C 128.253906 199.898438 128.695312 200.222656 128.90625 200.890625 L 129.304688 202.277344 L 131.945312 202.277344 L 131.945312 200.75 C 131.945312 199.726562 131.589844 198.878906 130.910156 198.199219 C 130.214844 197.515625 129.359375 197.175781 128.351562 197.175781 L 124.121094 197.175781 C 123.113281 197.175781 122.25 197.53125 121.554688 198.238281 C 120.84375 198.949219 120.488281 199.800781 120.488281 200.789062 L 120.488281 203.257812 C 120.488281 204.261719 120.855469 205.128906 121.554688 205.835938 C 122.25 206.542969 123.113281 206.898438 124.121094 206.898438 L 127.769531 206.898438 C 128.59375 206.898438 128.992188 207.367188 128.992188 208.289062 L 128.992188 210.15625 C 128.992188 210.554688 128.878906 210.894531 128.664062 211.164062 C 128.4375 211.433594 128.140625 211.5625 127.769531 211.5625 L 124.859375 211.5625 C 124.136719 211.5625 123.683594 211.21875 123.496094 210.582031 L 123.101562 209.011719 L 120.460938 209.011719 L 120.460938 210.710938 C 120.460938 211.746094 120.800781 212.59375 121.480469 213.273438 C 122.175781 213.957031 123.015625 214.296875 124.050781 214.296875 L 128.339844 214.296875 C 129.359375 214.296875 130.214844 213.941406 130.9375 213.234375 C 131.648438 212.539062 132.003906 211.675781 132.003906 210.652344 L 132.003906 207.761719 C 132.003906 206.769531 131.648438 205.921875 130.910156 205.199219 C 130.199219 204.476562 129.347656 204.105469 128.339844 204.105469 Z M 135.820312 197.742188 L 135.167969 198.75 L 134.515625 197.742188 L 134.230469 197.742188 L 134.230469 199.402344 L 134.515625 199.402344 L 134.515625 198.382812 C 134.515625 198.324219 134.484375 198.269531 134.484375 198.199219 C 134.515625 198.253906 134.558594 198.324219 134.585938 198.367188 L 135.125 199.191406 L 135.183594 199.191406 L 135.707031 198.382812 C 135.75 198.324219 135.765625 198.269531 135.792969 198.199219 C 135.777344 198.28125 135.777344 198.339844 135.777344 198.382812 L 135.777344 199.402344 L 136.078125 199.402344 L 136.078125 197.742188 Z M 88.574219 198.238281 C 89.296875 198.933594 89.652344 199.800781 89.652344 200.789062 L 89.652344 210.625 C 89.652344 211.660156 89.3125 212.523438 88.574219 213.234375 C 87.863281 213.941406 87.011719 214.296875 85.988281 214.296875 L 81.902344 214.296875 C 80.878906 214.296875 80.011719 213.941406 79.300781 213.234375 C 78.59375 212.539062 78.238281 211.675781 78.238281 210.625 L 78.238281 200.789062 C 78.238281 199.8125 78.605469 198.949219 79.300781 198.253906 C 80.011719 197.546875 80.878906 197.191406 81.902344 197.191406 L 85.988281 197.191406 C 87.011719 197.191406 87.847656 197.53125 88.574219 198.238281 Z M 86.628906 201.34375 C 86.628906 200.933594 86.515625 200.605469 86.273438 200.335938 C 86.046875 200.066406 85.761719 199.941406 85.40625 199.941406 L 82.496094 199.941406 C 82.113281 199.941406 81.828125 200.066406 81.601562 200.335938 C 81.390625 200.605469 81.277344 200.933594 81.277344 201.34375 L 81.277344 210.113281 C 81.277344 210.511719 81.375 210.835938 81.601562 211.105469 C 81.828125 211.390625 82.128906 211.53125 82.496094 211.53125 L 85.40625 211.53125 C 85.761719 211.53125 86.046875 211.390625 86.273438 211.105469 C 86.515625 210.835938 86.628906 210.511719 86.628906 210.113281 Z M 99.40625 153.53125 L 66.78125 153.53125 L 61.796875 161.453125 L 94.40625 161.4375 Z M 111.757812 177.265625 L 106.875 177.265625 L 101.863281 185.203125 L 116.78125 185.203125 L 121.792969 193.109375 L 131.320312 193.109375 L 106.078125 153.246094 L 85.804688 185.203125 L 63.628906 185.203125 L 68.710938 177.28125 L 82.484375 177.28125 L 87.507812 169.359375 L 56.785156 169.359375 L 51.773438 177.28125 L 59.144531 177.28125 L 49.089844 193.125 L 90.40625 193.109375 L 106.078125 168.269531 Z M 111.757812 177.265625 " fill-opacity="1" fill-rule="nonzero"/></svg>