<svg xmlns="http://www.w3.org/2000/svg" xmlns:xlink="http://www.w3.org/1999/xlink" width="500" zoomAndPan="magnify" viewBox="0 0 375 374.999991" height="500" preserveAspectRatio="xMidYMid meet" version="1.0"><defs><clipPath id="1ab20749af"><path d="M 313 191 L 357 191 L 357 252.878906 L 313 252.878906 Z M 313 191 " clip-rule="nonzero"/></clipPath><clipPath id="0d8b9aea20"><path d="M 218 122.378906 L 267 122.378906 L 267 184 L 218 184 Z M 218 122.378906 " clip-rule="nonzero"/></clipPath><clipPath id="4da15d8b24"><path d="M 154 122.378906 L 215 122.378906 L 215 184 L 154 184 Z M 154 122.378906 " clip-rule="nonzero"/></clipPath><clipPath id="822c7bf9fb"><path d="M 17 122.378906 L 57 122.378906 L 57 182 L 17 182 Z M 17 122.378906 " clip-rule="nonzero"/></clipPath><clipPath id="af624c49a3"><path d="M 60 122.378906 L 96 122.378906 L 96 182 L 60 182 Z M 60 122.378906 " clip-rule="nonzero"/></clipPath><clipPath id="7a56d5fbaf"><path d="M 272 122.378906 L 308 122.378906 L 308 182 L 272 182 Z M 272 122.378906 " clip-rule="nonzero"/></clipPath><clipPath id="8dd3dbb717"><path d="M 99 122.378906 L 159 122.378906 L 159 182 L 99 182 Z M 99 122.378906 " clip-rule="nonzero"/></clipPath><clipPath id="3f6acbd92e"><path d="M 98 191 L 159 191 L 159 252.878906 L 98 252.878906 Z M 98 191 " clip-rule="nonzero"/></clipPath></defs><g clip-path="url(#1ab20749af)"><path fill="#ffffff" d="M 338.960938 215.945312 C 333.171875 214.46875 328.175781 213.222656 328.175781 208.453125 C 328.175781 204.707031 331.011719 202.320312 335.554688 202.320312 C 339.757812 202.09375 343.617188 204.933594 344.410156 209.132812 L 355.765625 203.683594 C 352.699219 196.191406 345.320312 191.648438 335.894531 191.648438 C 323.632812 191.648438 315.117188 199.140625 315.117188 209.816406 C 315.117188 222.871094 324.542969 225.371094 332.945312 227.527344 C 338.847656 229.003906 343.84375 230.367188 343.84375 235.246094 C 343.84375 239.335938 340.550781 241.945312 335.554688 241.945312 C 330.558594 241.945312 326.359375 239.222656 325.222656 235.132812 L 313.867188 240.585938 C 317.046875 248.078125 325.109375 252.621094 335.101562 252.621094 C 348.386719 252.621094 356.902344 245.238281 356.902344 233.660156 C 356.902344 220.488281 346.910156 217.988281 338.960938 215.945312 Z M 338.960938 215.945312 " fill-opacity="1" fill-rule="nonzero"/></g><path fill="#ffffff" d="M 357.808594 138.851562 L 357.808594 144.871094 L 348.15625 144.871094 L 348.15625 150.546875 L 356.558594 150.546875 L 354.96875 156.335938 L 348.15625 156.335938 L 348.15625 165.304688 L 341.574219 165.304688 L 341.574219 138.851562 Z M 357.808594 138.851562 " fill-opacity="1" fill-rule="nonzero"/><path fill="#ffffff" d="M 324.996094 144.984375 C 329.082031 144.984375 332.375 148.277344 332.375 152.363281 C 332.375 156.449219 329.082031 159.742188 324.996094 159.742188 C 320.90625 159.742188 317.617188 156.449219 317.617188 152.363281 C 317.617188 148.277344 320.90625 144.984375 324.996094 144.984375 Z M 324.996094 166.101562 C 332.601562 166.101562 338.734375 159.855469 338.734375 152.25 C 338.734375 144.640625 332.488281 138.511719 324.882812 138.511719 C 317.273438 138.511719 311.144531 144.753906 311.144531 152.25 C 311.144531 159.96875 317.386719 166.214844 324.996094 166.101562 Z M 324.996094 166.101562 " fill-opacity="1" fill-rule="nonzero"/><path fill="#ffffff" d="M 203.960938 250.917969 L 216.222656 250.917969 L 216.222656 212.199219 L 244.042969 250.917969 L 256.871094 250.917969 L 256.871094 191.988281 L 244.496094 191.988281 L 244.496094 231.273438 L 217.019531 191.988281 L 201.125 191.988281 L 203.960938 197.78125 Z M 203.960938 250.917969 " fill-opacity="1" fill-rule="nonzero"/><path fill="#ffffff" d="M 298.425781 228.433594 C 296.722656 232.636719 293.316406 235.929688 289.230469 237.746094 C 287.074219 238.652344 284.800781 239.109375 282.417969 239.109375 L 275.378906 239.109375 L 275.378906 203.910156 L 282.417969 203.910156 C 284.800781 203.910156 287.074219 204.363281 289.230469 205.273438 C 293.429688 206.976562 296.722656 210.382812 298.425781 214.582031 C 300.242188 219.125 300.242188 224.007812 298.425781 228.433594 Z M 294.339844 194.375 C 290.59375 192.898438 286.617188 192.101562 282.644531 191.875 L 262.546875 191.875 L 262.546875 250.804688 L 282.644531 250.804688 C 290.59375 250.804688 298.199219 247.851562 303.992188 242.402344 C 306.714844 239.789062 308.988281 236.609375 310.460938 233.089844 C 315.34375 221.964844 312.734375 209.019531 303.992188 200.617188 C 301.152344 198.007812 297.972656 195.847656 294.339844 194.375 Z M 294.339844 194.375 " fill-opacity="1" fill-rule="nonzero"/><path fill="#ffffff" d="M 95.757812 250.917969 L 60.671875 250.917969 L 60.671875 191.988281 L 95.757812 191.988281 L 95.757812 203.457031 L 73.503906 203.457031 L 73.503906 215.378906 L 93.828125 215.378906 L 90.761719 226.503906 L 73.503906 226.503906 L 73.503906 239.449219 L 95.757812 239.5625 Z M 95.757812 250.917969 " fill-opacity="1" fill-rule="nonzero"/><path fill="#ffffff" d="M 175.917969 203.457031 L 198.171875 203.457031 L 198.171875 191.988281 L 163.199219 191.988281 L 163.199219 250.917969 L 198.171875 250.917969 L 198.171875 239.5625 L 175.917969 239.449219 L 175.917969 226.503906 L 193.175781 226.503906 L 196.242188 215.378906 L 175.917969 215.378906 Z M 175.917969 203.457031 " fill-opacity="1" fill-rule="nonzero"/><g clip-path="url(#0d8b9aea20)"><path fill="#ffffff" d="M 220.425781 168.941406 C 219.289062 165.648438 218.722656 162.242188 218.835938 158.835938 L 219.0625 122.5 L 231.777344 122.5 L 231.664062 158.265625 C 231.664062 162.242188 232.574219 165.421875 234.390625 167.691406 C 238.703125 172.234375 245.972656 172.347656 250.398438 167.917969 L 250.625 167.691406 C 252.558594 165.421875 253.464844 162.242188 253.464844 158.265625 L 253.578125 122.386719 L 266.523438 122.386719 L 266.296875 159.0625 C 266.296875 162.46875 265.839844 165.875 264.707031 169.167969 C 263.683594 172.003906 261.980469 174.617188 259.9375 176.886719 C 257.78125 179.042969 255.28125 180.746094 252.445312 181.769531 C 245.972656 184.039062 238.933594 184.039062 232.460938 181.65625 C 229.621094 180.519531 227.125 178.929688 225.082031 176.660156 C 223.035156 174.503906 221.445312 171.890625 220.425781 168.941406 Z M 220.425781 168.941406 " fill-opacity="1" fill-rule="nonzero"/></g><g clip-path="url(#4da15d8b24)"><path fill="#ffffff" d="M 156.617188 164.398438 C 155.027344 160.652344 154.230469 156.5625 154.230469 152.589844 C 154.230469 148.503906 155.140625 144.527344 156.730469 140.78125 C 158.316406 137.148438 160.589844 133.855469 163.425781 131.128906 C 166.265625 128.292969 169.671875 126.136719 173.304688 124.660156 C 177.050781 123.070312 181.140625 122.273438 185.339844 122.386719 C 190.90625 122.273438 196.46875 123.75 201.351562 126.476562 C 205.890625 129.085938 209.636719 132.949219 212.023438 137.714844 L 200.441406 143.167969 C 199.078125 140.441406 196.921875 138.171875 194.3125 136.582031 C 191.585938 134.992188 188.40625 134.308594 185.226562 134.308594 C 182.84375 134.308594 180.34375 134.765625 178.1875 135.671875 C 176.03125 136.582031 174.101562 137.941406 172.511719 139.644531 C 170.808594 141.347656 169.558594 143.394531 168.652344 145.550781 C 166.71875 150.207031 166.71875 155.316406 168.535156 159.96875 C 170.238281 164.398438 173.761719 168.03125 178.074219 169.960938 C 180.34375 170.984375 182.730469 171.550781 185.226562 171.4375 C 188.859375 171.550781 192.492188 170.414062 195.445312 168.371094 C 198.171875 166.441406 200.101562 163.488281 200.894531 160.195312 L 179.890625 160.195312 L 185.113281 149.523438 L 214.40625 149.523438 C 214.519531 151.796875 214.40625 156.675781 214.292969 157.699219 C 213.953125 160.425781 213.273438 163.148438 212.25 165.761719 C 209.410156 172.800781 203.847656 178.25 196.808594 181.089844 C 185.226562 185.742188 172.058594 183.019531 163.199219 174.164062 C 160.363281 171.324219 158.203125 168.03125 156.613281 164.398438 Z M 156.617188 164.398438 " fill-opacity="1" fill-rule="nonzero"/></g><g clip-path="url(#822c7bf9fb)"><path fill="#ffffff" d="M 20.140625 175.523438 L 20.140625 128.632812 L 17.1875 122.5 L 32.855469 122.5 L 32.855469 170.074219 L 56.359375 170.074219 L 53.066406 181.65625 L 17.1875 181.65625 Z M 20.140625 175.523438 " fill-opacity="1" fill-rule="nonzero"/></g><path fill="#ffffff" d="M 20.140625 244.785156 L 20.140625 197.894531 L 17.1875 191.761719 L 32.855469 191.761719 L 32.855469 239.335938 L 56.359375 239.335938 L 53.066406 250.917969 L 17.1875 250.917969 Z M 20.140625 244.785156 " fill-opacity="1" fill-rule="nonzero"/><g clip-path="url(#af624c49a3)"><path fill="#ffffff" d="M 95.757812 181.65625 L 60.671875 181.65625 L 60.671875 122.730469 L 95.757812 122.730469 L 95.757812 134.195312 L 73.503906 134.195312 L 73.503906 146.117188 L 93.828125 146.117188 L 90.761719 157.246094 L 73.503906 157.246094 L 73.503906 170.074219 L 95.757812 170.1875 Z M 95.757812 181.65625 " fill-opacity="1" fill-rule="nonzero"/></g><g clip-path="url(#7a56d5fbaf)"><path fill="#ffffff" d="M 307.167969 181.65625 L 272.199219 181.65625 L 272.199219 122.730469 L 307.285156 122.730469 L 307.285156 134.195312 L 285.03125 134.195312 L 285.03125 146.117188 L 305.351562 146.117188 L 302.289062 157.246094 L 285.03125 157.246094 L 285.03125 170.074219 L 307.285156 170.1875 L 307.285156 181.65625 Z M 307.167969 181.65625 " fill-opacity="1" fill-rule="nonzero"/></g><g clip-path="url(#8dd3dbb717)"><path fill="#ffffff" d="M 129.367188 139.078125 L 136.746094 158.949219 L 121.644531 158.949219 Z M 112.902344 181.65625 L 117.332031 170.1875 L 140.945312 170.1875 L 145.488281 181.65625 L 158.773438 181.65625 L 135.042969 122.5 L 116.875 122.5 L 120.738281 130.222656 L 99.84375 181.65625 Z M 112.902344 181.65625 " fill-opacity="1" fill-rule="nonzero"/></g><g clip-path="url(#3f6acbd92e)"><path fill="#ffffff" d="M 122.324219 251.824219 C 124.484375 252.277344 126.640625 252.507812 128.910156 252.507812 C 132.886719 252.621094 136.859375 251.824219 140.605469 250.347656 C 147.644531 247.511719 153.210938 242.058594 156.046875 235.019531 C 157.070312 232.410156 157.75 229.683594 158.089844 226.960938 C 158.316406 224.234375 158.316406 221.507812 158.203125 218.671875 L 128.910156 218.671875 L 128.910156 218.785156 L 123.6875 229.457031 L 144.578125 229.457031 C 143.785156 232.75 141.855469 235.703125 139.128906 237.632812 C 136.179688 239.789062 132.660156 240.8125 129.023438 240.699219 C 127.890625 240.699219 126.867188 240.585938 125.730469 240.355469 L 123.121094 239.675781 C 122.667969 239.5625 122.324219 239.335938 121.871094 239.222656 C 117.558594 237.292969 114.039062 233.773438 112.335938 229.230469 C 110.519531 224.574219 110.519531 219.351562 112.449219 214.695312 C 113.355469 212.539062 114.71875 210.496094 116.308594 208.792969 C 117.898438 207.089844 119.941406 205.839844 122.097656 204.933594 C 124.371094 204.023438 126.753906 203.570312 129.136719 203.570312 C 132.316406 203.457031 135.496094 204.25 138.222656 205.839844 C 140.832031 207.429688 142.992188 209.703125 144.351562 212.425781 L 155.933594 206.976562 C 153.550781 202.207031 149.917969 198.347656 145.261719 195.734375 C 140.378906 193.011719 134.929688 191.648438 129.253906 191.648438 C 121.078125 191.535156 113.242188 194.714844 107.339844 200.503906 C 104.5 203.230469 102.230469 206.523438 100.640625 210.15625 C 97.347656 217.648438 97.347656 226.277344 100.527344 233.773438 C 102.117188 237.40625 104.273438 240.699219 107 243.535156 C 109.496094 246.035156 112.449219 248.078125 115.628906 249.667969 C 117.859375 250.671875 120.09375 251.488281 122.324219 251.824219 Z M 122.324219 251.824219 " fill-opacity="1" fill-rule="nonzero"/></g></svg>