<svg xmlns="http://www.w3.org/2000/svg" xmlns:xlink="http://www.w3.org/1999/xlink" width="500" zoomAndPan="magnify" viewBox="0 0 375 374.999991" height="500" preserveAspectRatio="xMidYMid meet" version="1.0"><rect x="-37.5" width="450" fill="#000000" y="-37.499999" height="449.999989" fill-opacity="1"/><path fill="#ffffff" d="M 163.269531 49.886719 C 154.210938 51.734375 144.574219 55.792969 144.574219 55.792969 C 149.34375 49.292969 159.03125 41.332031 159.03125 41.332031 C 156.367188 36.324219 154.007812 28.910156 154.007812 28.910156 C 154.007812 28.910156 165.207031 29.523438 173.976562 32.371094 C 173.976562 32.371094 188.875 24.207031 204.308594 23.953125 C 204.308594 23.953125 193.058594 30.449219 188.277344 36.5 C 189.546875 37.167969 198.542969 39.859375 205.550781 43.988281 C 205.550781 43.988281 192.882812 44.347656 181.257812 45.9375 C 181.257812 45.9375 177.164062 51.710938 173.703125 64.855469 C 173.699219 64.855469 167.738281 58.289062 163.269531 49.886719 Z M 163.269531 49.886719 " fill-opacity="1" fill-rule="evenodd"/><path fill="#ffffff" d="M 223.457031 60.765625 C 215.785156 52.234375 205.550781 43.988281 205.550781 43.988281 C 214.964844 44.125 228.941406 49.679688 228.941406 49.679688 C 231.671875 44.515625 233.585938 37.410156 233.585938 37.410156 C 233.585938 37.410156 238.929688 46.460938 241.359375 56.464844 C 241.359375 56.464844 252.457031 63.109375 260.832031 74.234375 C 260.832031 74.234375 252.09375 72.410156 245.660156 72.441406 C 245.640625 73.878906 248.019531 85.683594 247.503906 93.796875 C 247.503906 93.796875 240.378906 82.222656 233.691406 72.578125 C 233.691406 72.578125 222.949219 72.773438 211.660156 75.859375 C 211.660156 75.859375 217.984375 68.554688 223.457031 60.765625 Z M 235.75 116.386719 C 241.410156 106.847656 247.503906 93.800781 247.503906 93.800781 C 249.375 102.527344 249.539062 113.65625 249.539062 113.65625 C 255.152344 112.476562 265.089844 107.707031 265.089844 107.707031 C 265.089844 107.707031 260.664062 119.5 250.742188 128.539062 C 250.742188 128.539062 251.746094 135.601562 251.863281 144.921875 C 251.863281 144.921875 244.84375 141.796875 239.027344 138.300781 C 237.785156 139.023438 230.753906 143.808594 218.871094 146.265625 C 218.871094 146.265625 223.902344 138.40625 228.066406 130.730469 C 228.066406 130.730469 219.78125 125.273438 213.21875 116.328125 C 213.21875 116.328125 225.976562 117.9375 235.75 116.386719 Z M 235.75 116.386719 " fill-opacity="1" fill-rule="evenodd"/><path fill="#ffffff" d="M 195.730469 96.921875 C 204.410156 107.671875 213.21875 116.328125 213.21875 116.328125 C 198.828125 114.191406 187.144531 110.15625 187.144531 110.15625 C 181.300781 119.527344 174.925781 130.417969 174.925781 130.417969 C 174.925781 130.417969 171.359375 118.601562 170.753906 105.1875 C 170.753906 105.1875 163.527344 102.660156 150.207031 97.414062 C 150.207031 97.414062 159.394531 91.710938 170.515625 88.601562 C 169.867188 87.316406 171.570312 71.375 173.703125 64.855469 C 173.703125 64.855469 180.1875 75.367188 185.46875 83.09375 C 185.46875 83.09375 195.800781 79.589844 211.664062 75.859375 C 211.660156 75.859375 202.980469 86.871094 195.730469 96.921875 Z M 116.726562 137.585938 C 115.855469 135.941406 115.039062 134.265625 114.285156 132.5625 C 114.4375 126.863281 114.949219 119.519531 116.40625 113.820312 C 116.40625 113.820312 112.226562 110.921875 107.902344 107.148438 C 107.855469 106.496094 107.796875 105.832031 107.761719 105.167969 C 110.242188 104.242188 115.515625 102.382812 120.117188 101.316406 C 120.644531 99.976562 123.511719 90.742188 129.046875 84.367188 C 129.046875 84.367188 129.421875 90.648438 130.929688 99.003906 C 130.929688 99.003906 139.671875 97.023438 150.207031 97.410156 C 150.207031 97.410156 140.441406 105.101562 134.296875 112.910156 C 136.523438 121.917969 141.011719 130.558594 141.011719 130.558594 C 134.308594 126.765625 127.214844 121.742188 127.214844 121.742188 C 124.726562 124.703125 119.71875 132.691406 116.726562 137.585938 Z M 172.5 178.476562 C 171.414062 178.28125 170.332031 178.058594 169.257812 177.808594 C 165.601562 173.886719 160.019531 167.480469 155.753906 160.746094 C 155.753906 160.746094 140.03125 159.476562 128.953125 154.625 C 128.953125 154.625 138.117188 152.902344 148.179688 147.714844 C 147.527344 146.433594 143.691406 139.359375 141.007812 130.5625 C 141.007812 130.5625 150.621094 138.328125 157.742188 142.871094 C 157.742188 142.871094 166.789062 137.667969 174.921875 130.417969 C 174.921875 130.417969 172.859375 140.4375 171.71875 151.878906 C 176.972656 154.882812 182.273438 157.804688 187.613281 160.652344 C 179.410156 161.847656 171.332031 161.597656 171.332031 161.597656 C 171.015625 167.949219 171.867188 174.628906 172.5 178.476562 Z M 240.902344 158.046875 C 240.902344 158.046875 230.058594 160.910156 219.476562 161.308594 C 219.476562 161.308594 219.394531 154.089844 218.871094 146.265625 C 218.871094 146.265625 213.25 154.242188 205.914062 161.914062 C 197.25 161.789062 187.613281 160.65625 187.613281 160.65625 C 190.917969 164.019531 194.316406 167.285156 197.808594 170.457031 C 191.285156 176.003906 185.253906 179.710938 185.253906 179.710938 C 186.109375 179.722656 186.980469 179.726562 187.84375 179.714844 C 208.4375 179.378906 227.054688 171.179688 240.902344 158.046875 Z M 240.902344 158.046875 " fill-opacity="1" fill-rule="evenodd"/><path fill="#ffffff" d="M 108.714844 87.726562 C 108.714844 87.726562 114.507812 80.5 121.269531 74.632812 C 121.269531 74.632812 123.53125 78.808594 129.046875 84.371094 C 129.046875 84.371094 129.089844 77.574219 129.878906 66.910156 C 136.058594 61.445312 144.574219 55.792969 144.574219 55.792969 C 137.511719 55.34375 132.242188 55.6875 132.242188 55.6875 C 133.878906 47.597656 137.578125 38.910156 137.578125 38.910156 C 122.5625 50.816406 111.996094 68.074219 108.714844 87.726562 Z M 260.355469 296.984375 C 250.230469 296.984375 244.082031 288.503906 244.082031 279.203125 C 244.082031 269.539062 251.25 262.539062 260.605469 262.539062 C 270.96875 262.539062 277.21875 270.769531 277.21875 279.8125 C 277.21875 290.527344 269.445312 296.984375 260.355469 296.984375 Z M 259.789062 267.410156 C 253.488281 267.410156 251.605469 273.40625 251.605469 277.46875 C 251.605469 283.40625 254.25 292.097656 261.515625 292.097656 C 266.699219 292.097656 269.699219 287.484375 269.699219 281.945312 C 269.699219 276.054688 267.414062 267.410156 259.789062 267.410156 Z M 198.414062 292.160156 C 198.414062 293.984375 198.765625 294.640625 201.714844 295.210938 L 201.714844 296.476562 C 198.511719 296.324219 196.523438 296.171875 194.652344 296.171875 C 192.765625 296.171875 190.789062 296.324219 188.550781 296.476562 L 188.550781 295.199219 C 190.527344 294.851562 190.890625 293.984375 190.890625 291.59375 L 190.890625 266.75 C 190.890625 265.324219 190.28125 264.65625 188.550781 264.605469 L 188.550781 263.191406 L 203.589844 263.191406 C 212.992188 263.191406 216.402344 267.664062 216.402344 273.566406 C 216.402344 279.867188 211.621094 283.734375 205.066406 283.734375 C 202.578125 283.734375 198.921875 282.457031 198.921875 281.390625 C 198.921875 280.933594 199.226562 280.933594 199.683594 280.933594 C 200.140625 280.933594 200.796875 281.085938 201.457031 281.085938 C 206.792969 281.085938 208.882812 278.089844 208.882812 273.871094 C 208.882812 269.292969 206.03125 267.667969 201.554688 267.667969 L 198.414062 268.003906 Z M 226.222656 266.4375 C 226.222656 265.019531 225.617188 264.351562 223.886719 264.304688 L 223.886719 262.980469 C 226.121094 263.132812 228.097656 263.285156 229.984375 263.285156 C 231.867188 263.285156 233.847656 263.132812 236.078125 262.980469 L 236.078125 264.304688 C 234.355469 264.351562 233.742188 265.019531 233.742188 266.4375 L 233.742188 293.070312 C 233.742188 294.496094 234.355469 295.152344 236.078125 295.210938 L 236.078125 296.476562 C 233.847656 296.324219 231.863281 296.171875 229.984375 296.171875 C 228.097656 296.171875 226.125 296.324219 223.886719 296.476562 L 223.886719 295.210938 C 225.617188 295.15625 226.222656 294.5 226.222656 293.070312 Z M 287.40625 266.414062 C 287.40625 264.996094 286.792969 264.328125 285.0625 264.28125 L 285.0625 262.945312 C 287.300781 263.09375 289.285156 263.261719 291.167969 263.261719 C 292.539062 263.261719 294.0625 263.261719 295.640625 262.945312 L 309.667969 285.683594 L 309.765625 285.683594 L 309.765625 267.128906 C 309.765625 264.480469 308.089844 264.28125 306.71875 264.28125 L 306.71875 262.945312 C 308.394531 263.09375 310.019531 263.261719 311.597656 263.261719 C 313.273438 263.261719 314.953125 263.09375 316.582031 262.945312 L 316.582031 264.28125 C 314.851562 264.328125 314.238281 264.996094 314.238281 266.414062 L 314.238281 296.476562 L 308.851562 296.476562 L 291.980469 270.234375 L 291.878906 270.234375 L 291.878906 292.332031 C 291.878906 294.980469 293.546875 295.175781 294.925781 295.175781 L 294.925781 296.453125 C 293.25 296.300781 291.621094 296.136719 290.046875 296.136719 C 288.371094 296.136719 286.691406 296.300781 285.0625 296.453125 L 285.0625 295.175781 C 286.792969 295.132812 287.40625 294.464844 287.40625 293.046875 Z M 326.96875 284.917969 C 328.011719 290.625 331.753906 293.292969 337.359375 293.292969 C 340.4375 293.292969 344.890625 292.40625 344.890625 288.480469 C 344.890625 285.339844 341.644531 284.507812 339.242188 283.769531 L 335.519531 282.671875 C 330.1875 281.101562 324.851562 278.851562 324.851562 272.679688 C 324.851562 264.574219 332.699219 262.117188 340.492188 262.117188 C 343.796875 262.117188 347.191406 262.691406 350.226562 263.792969 C 350.226562 267.5625 350.433594 270.746094 350.640625 273.464844 L 349.332031 273.464844 C 348.234375 268.652344 344.316406 266.402344 339.609375 266.402344 C 336.984375 266.402344 332.597656 267.246094 332.597656 270.851562 C 332.597656 273.734375 335.101562 274.5625 337.25 275.1875 L 342.742188 276.769531 C 348.023438 278.277344 352.941406 280.222656 352.941406 287.015625 C 352.941406 293.914062 345.984375 297.582031 337.457031 297.582031 C 333.640625 297.582031 329.613281 296.960938 326.109375 295.695312 C 326.109375 291.5625 325.953125 287.960938 325.6875 284.917969 Z M 62.742188 266.4375 C 62.742188 265.019531 62.132812 264.351562 60.398438 264.304688 L 60.398438 262.980469 C 62.636719 263.132812 64.621094 263.285156 66.5 263.285156 C 68.382812 263.285156 70.359375 263.132812 72.597656 262.980469 L 72.597656 264.304688 C 70.871094 264.351562 70.269531 265.019531 70.269531 266.4375 L 70.261719 276.5 L 82.558594 276.511719 L 82.558594 266.4375 C 82.558594 265.019531 81.957031 264.351562 80.230469 264.304688 L 80.230469 262.980469 C 82.460938 263.132812 84.445312 263.285156 86.324219 263.285156 C 88.203125 263.285156 90.191406 263.132812 92.414062 262.980469 L 92.414062 264.304688 C 90.695312 264.351562 90.082031 265.019531 90.082031 266.4375 L 90.082031 293.070312 C 90.082031 294.496094 90.691406 295.152344 92.414062 295.199219 L 92.414062 296.5 C 90.1875 296.351562 88.203125 296.195312 86.316406 296.195312 C 84.445312 296.195312 82.460938 296.351562 80.222656 296.5 L 80.222656 295.199219 C 81.957031 295.15625 82.558594 294.5 82.558594 293.070312 L 82.558594 281.378906 L 70.261719 281.378906 L 70.261719 293.070312 C 70.261719 294.496094 70.871094 295.152344 72.601562 295.199219 L 72.601562 296.5 C 70.363281 296.351562 68.386719 296.195312 66.503906 296.195312 C 64.625 296.195312 62.636719 296.351562 60.402344 296.5 L 60.402344 295.199219 C 62.128906 295.15625 62.742188 294.5 62.742188 293.070312 Z M 111.230469 281.933594 C 112.546875 278.335938 114.171875 274.316406 115.339844 270.257812 L 115.445312 270.257812 C 116.464844 275.386719 117.328125 278.644531 118.394531 281.933594 Z M 98.925781 296.480469 C 100.707031 296.328125 102.4375 296.175781 104.210938 296.175781 C 105.941406 296.175781 107.722656 296.328125 109.449219 296.480469 L 109.449219 295.203125 C 107.765625 295.097656 107.058594 294.5 107.058594 293.578125 C 107.058594 293.070312 107.207031 292.507812 107.46875 291.792969 L 109.695312 285.796875 L 119.605469 285.796875 L 121.234375 290.742188 C 121.492188 291.398438 121.742188 292.570312 121.742188 293.273438 C 121.742188 294.445312 121.082031 294.851562 119.199219 295.203125 L 119.199219 296.480469 C 121.386719 296.328125 123.570312 296.175781 125.757812 296.175781 C 127.886719 296.175781 130.074219 296.328125 132.210938 296.480469 L 132.210938 295.203125 C 130.691406 294.804688 129.921875 294.140625 129.160156 291.902344 L 119.808594 262.984375 C 118.230469 263.136719 116.605469 263.289062 115.03125 263.289062 C 113.460938 263.289062 111.878906 263.136719 110.253906 262.984375 L 110.253906 264.308594 C 111.625 264.308594 112.1875 265.117188 112.1875 265.636719 C 112.1875 266.136719 111.824219 266.851562 111.527344 267.613281 L 101.566406 292.863281 C 101.058594 294.199219 100.394531 295.007812 98.917969 295.203125 L 98.917969 296.480469 Z M 142.46875 271.21875 C 142.523438 269.800781 142.617188 268.371094 142.617188 266.347656 C 142.617188 264.761719 142.265625 264.5625 140.335938 264.304688 L 140.335938 262.980469 C 141.855469 263.132812 143.6875 263.285156 145.523438 263.285156 C 147.347656 263.285156 149.183594 263.132812 151.007812 262.980469 L 159.902344 286.542969 L 167.875 262.980469 C 169.660156 263.132812 171.390625 263.285156 173.167969 263.285156 C 174.941406 263.285156 176.722656 263.132812 178.449219 262.980469 L 178.449219 264.304688 C 176.675781 264.457031 176.417969 265.019531 176.417969 266.390625 C 176.417969 267.820312 176.617188 270.101562 176.769531 271.824219 L 178.402344 293.527344 C 178.503906 294.851562 179.972656 295.046875 180.992188 295.199219 L 180.992188 296.476562 C 178.800781 296.324219 176.574219 296.171875 174.386719 296.171875 C 172.148438 296.171875 169.964844 296.324219 167.871094 296.476562 L 167.871094 295.199219 C 170.367188 294.894531 171.03125 294.4375 171.03125 292.105469 C 171.03125 290.878906 170.871094 288.59375 170.726562 286.917969 L 169.554688 271.777344 L 169.453125 271.777344 L 160.96875 296.757812 L 156.699219 296.757812 L 146.988281 271.472656 L 146.882812 271.472656 L 146.480469 286.355469 C 146.433594 289.003906 146.328125 290.375 146.328125 291.746094 C 146.328125 294.289062 146.578125 294.851562 149.632812 295.199219 L 149.632812 296.476562 C 147.597656 296.324219 145.71875 296.171875 143.785156 296.171875 C 141.910156 296.171875 140.023438 296.324219 138.449219 296.476562 L 138.449219 295.199219 C 140.433594 295.046875 141.25 294.59375 141.351562 292.460938 Z M 52.742188 294.617188 C 49.265625 297.289062 44.277344 298.355469 41.019531 298.355469 C 28.902344 298.355469 22.058594 288.960938 22.058594 279.324219 C 22.058594 269.472656 28.902344 259.9375 42.035156 259.953125 C 46.628906 259.953125 49.929688 260.828125 51.21875 261.332031 C 51.21875 265.183594 51.425781 268.898438 51.710938 272.574219 L 50.242188 272.574219 C 49.347656 267.878906 46.066406 265.386719 41.355469 265.386719 C 34.964844 265.386719 30.027344 270.421875 30.027344 278.925781 C 30.027344 285.332031 35.296875 292.582031 42.703125 292.582031 C 45.84375 292.582031 50.359375 290.859375 53.394531 288.308594 Z M 107.761719 314.855469 C 107.761719 313.757812 107.285156 313.238281 105.957031 313.203125 L 105.957031 312.125 C 107.683594 312.253906 109.210938 312.359375 110.660156 312.359375 C 112.3125 312.359375 114.707031 312.253906 115.84375 312.125 L 115.84375 313.203125 C 113.839844 313.285156 113.566406 314.269531 113.566406 315.359375 L 113.566406 334.578125 L 120.820312 334.578125 C 123.414062 334.578125 124.476562 333.394531 125.136719 330.40625 L 126.414062 330.40625 C 125.941406 332.960938 125.507812 335.480469 125.46875 338.035156 L 105.957031 338.035156 L 105.957031 336.953125 C 107.285156 336.917969 107.761719 336.402344 107.761719 335.300781 Z M 132.730469 314.984375 C 132.730469 313.886719 132.257812 313.367188 130.929688 313.332031 L 130.929688 312.265625 L 150.75 312.265625 C 150.769531 314.277344 150.875 316.285156 151.058594 318.289062 L 149.984375 318.289062 C 149.59375 316.128906 149.046875 315.382812 146.929688 315.382812 L 138.53125 315.382812 L 138.53125 322.96875 L 143.75 322.96875 C 145.511719 322.96875 145.789062 322.371094 146.019531 320.964844 L 147.09375 320.964844 C 146.953125 322.210938 146.875 323.457031 146.855469 324.707031 C 146.855469 325.757812 146.972656 327.480469 147.09375 328.429688 L 146.019531 328.429688 C 145.785156 327.011719 145.511719 326.425781 143.75 326.425781 L 138.53125 326.425781 L 138.53125 334.578125 L 147.355469 334.578125 C 149.476562 334.578125 150.140625 333.863281 150.808594 330.570312 L 152.117188 330.570312 C 151.835938 333.050781 151.679688 335.539062 151.648438 338.035156 L 130.929688 338.035156 L 130.929688 336.953125 C 132.257812 336.917969 132.730469 336.402344 132.730469 335.300781 L 132.730469 314.980469 Z M 156.824219 336.96875 C 157.957031 336.804688 158.46875 336.183594 158.863281 335.164062 L 166.558594 315.722656 C 166.792969 315.121094 167.066406 314.585938 167.066406 314.199219 C 167.066406 313.800781 166.632812 313.171875 165.574219 313.171875 L 165.574219 312.101562 C 166.824219 312.222656 168.046875 312.339844 169.261719 312.339844 C 170.480469 312.339844 171.730469 312.21875 172.953125 312.101562 L 180.167969 334.425781 C 180.761719 336.136719 181.347656 336.65625 182.523438 336.96875 L 182.523438 338.039062 C 180.871094 337.917969 179.191406 337.800781 177.542969 337.800781 C 175.855469 337.800781 174.167969 337.921875 172.480469 338.039062 L 172.480469 336.96875 C 173.933594 336.6875 174.441406 336.371094 174.441406 335.484375 C 174.441406 334.933594 174.242188 334.027344 174.050781 333.527344 L 172.792969 329.730469 L 165.144531 329.730469 L 163.414062 334.34375 C 163.214844 334.882812 163.097656 335.316406 163.097656 335.714844 C 163.097656 336.40625 163.648438 336.886719 164.941406 336.96875 L 164.941406 338.039062 C 163.609375 337.917969 162.238281 337.800781 160.902344 337.800781 C 159.523438 337.800781 158.199219 337.921875 156.820312 338.039062 L 156.820312 336.96875 Z M 171.847656 326.753906 C 171.03125 324.210938 170.355469 321.707031 169.570312 317.75 L 169.496094 317.75 C 168.59375 320.875 167.335938 323.980469 166.316406 326.753906 Z M 203.511719 328.851562 C 203.511719 327.28125 202.804688 327.210938 201.042969 327.175781 L 201.042969 325.855469 C 202.648438 325.980469 204.261719 326.101562 205.90625 326.101562 C 207.675781 326.101562 209.402344 325.980469 211.164062 325.855469 L 211.164062 327.09375 C 209.789062 327.132812 209.085938 327.480469 209.085938 329.25 L 209.085938 338.035156 L 206.808594 338.035156 L 205.90625 335.398438 C 203.433594 337.71875 200.839844 338.539062 198.175781 338.539062 C 190.796875 338.539062 186.089844 332.457031 186.089844 325.398438 C 186.089844 316.882812 191.78125 311.726562 200.257812 311.726562 C 202.964844 311.726562 205.882812 312.234375 207.992188 313.554688 C 207.992188 315.476562 208.074219 317.691406 208.234375 320.394531 L 207.101562 320.394531 C 206.59375 316.90625 203.277344 315.183594 200.023438 315.183594 C 194.5625 315.183594 191.902344 319.355469 191.902344 324.414062 C 191.902344 329.285156 194.648438 334.777344 199.195312 334.777344 C 201.984375 334.777344 203.511719 333.480469 203.511719 331.675781 Z M 219.054688 314.855469 C 219.054688 313.757812 218.582031 313.238281 217.253906 313.203125 L 217.253906 312.125 C 218.75 312.277344 220.253906 312.355469 221.757812 312.359375 C 223.804688 312.359375 225.414062 312.253906 226.984375 312.125 L 226.984375 313.203125 C 225.289062 313.285156 224.863281 313.589844 224.863281 315.121094 L 224.863281 329.785156 C 224.863281 334.226562 226.710938 335.078125 229.886719 335.078125 C 233.066406 335.078125 234.910156 334.144531 234.910156 329.785156 L 234.910156 315.121094 C 234.910156 313.589844 234.480469 313.285156 232.785156 313.203125 L 232.785156 312.125 C 234.363281 312.253906 235.96875 312.359375 238.011719 312.359375 C 239.65625 312.359375 241.269531 312.253906 242.523438 312.125 L 242.523438 313.203125 C 241.191406 313.238281 240.714844 313.753906 240.714844 314.855469 L 240.714844 328.96875 C 240.714844 336.230469 236.949219 338.539062 229.886719 338.539062 C 222.820312 338.539062 219.054688 336.230469 219.054688 329.519531 Z M 250.824219 314.984375 C 250.824219 313.886719 250.363281 313.367188 249.023438 313.332031 L 249.023438 312.265625 L 268.847656 312.265625 C 268.890625 314.417969 268.964844 316.167969 269.15625 318.289062 L 268.085938 318.289062 C 267.695312 316.128906 267.144531 315.382812 265.023438 315.382812 L 256.640625 315.382812 L 256.640625 322.855469 L 261.851562 322.855469 C 263.613281 322.855469 263.890625 322.265625 264.128906 320.855469 L 265.195312 320.855469 C 265.058594 322.089844 264.980469 323.332031 264.957031 324.578125 C 264.957031 325.640625 265.082031 327.363281 265.195312 328.3125 L 264.128906 328.3125 C 263.890625 326.894531 263.613281 326.3125 261.851562 326.3125 L 256.640625 326.3125 L 256.640625 334.578125 L 265.453125 334.578125 C 267.574219 334.578125 268.246094 333.863281 268.910156 330.574219 L 270.214844 330.574219 C 269.933594 333.054688 269.777344 335.539062 269.746094 338.035156 L 249.019531 338.035156 L 249.019531 336.957031 C 250.359375 336.921875 250.824219 336.40625 250.824219 335.304688 L 250.824219 314.980469 Z M 150.246094 253.675781 C 158.878906 243.789062 171.574219 237.546875 185.734375 237.546875 C 200.289062 237.546875 213.304688 244.148438 221.949219 254.527344 L 224.234375 252.382812 C 215.027344 241.4375 201.226562 234.492188 185.800781 234.492188 C 170.773438 234.492188 157.292969 241.082031 148.09375 251.554688 Z M 181.710938 228.703125 L 167.925781 231.570312 L 164.453125 214.871094 L 178.050781 212.046875 L 178.6875 215.101562 L 169.753906 216.964844 L 170.480469 220.46875 L 179.007812 218.691406 L 179.640625 221.753906 L 171.113281 223.523438 L 171.949219 227.542969 L 181.074219 225.644531 Z M 208.015625 217.925781 L 199.792969 216.195312 L 199.015625 219.90625 L 207.230469 221.652344 L 206.585938 224.707031 L 198.375 222.964844 L 196.925781 229.828125 L 192.265625 228.832031 L 195.78125 212.15625 L 208.667969 214.871094 Z M 227.894531 246.46875 L 223.804688 242.605469 L 224.449219 238.9375 L 217.433594 234.0625 L 214.328125 236.019531 L 209.683594 233.421875 L 226.25 223.550781 L 230.78125 226.6875 Z M 226.488281 228.234375 L 220.226562 232.175781 L 225.199219 235.632812 Z M 152.128906 239.628906 C 149.070312 242.054688 143.886719 244.035156 140.097656 239.582031 L 134.625 232.570312 L 138.285156 229.675781 L 143.652344 236.574219 C 145.589844 238.859375 148.027344 238.414062 149.96875 236.890625 C 151.90625 235.371094 152.902344 233.09375 151.136719 230.671875 L 145.761719 223.785156 L 149.417969 220.90625 L 154.894531 227.917969 C 158.164062 232.402344 156.140625 236.441406 152.128906 239.628906 Z M 152.128906 239.628906 " fill-opacity="1" fill-rule="evenodd"/><path fill="#ffffff" d="M 244.675781 229.816406 C 229.984375 214.367188 209.230469 204.726562 186.226562 204.726562 C 162.949219 204.726562 141.972656 214.589844 127.257812 230.363281 L 124.769531 227.835938 C 140.226562 211.652344 162.023438 201.566406 186.171875 201.566406 C 210.132812 201.566406 231.761719 211.496094 247.199219 227.449219 Z M 276.738281 351.046875 C 276.320312 351.046875 275.902344 351.007812 275.492188 350.925781 C 275.082031 350.84375 274.683594 350.726562 274.292969 350.566406 C 273.90625 350.40625 273.539062 350.210938 273.191406 349.976562 C 272.839844 349.746094 272.519531 349.480469 272.222656 349.183594 C 271.925781 348.890625 271.660156 348.566406 271.425781 348.21875 C 271.195312 347.871094 270.996094 347.503906 270.835938 347.117188 C 270.675781 346.730469 270.554688 346.332031 270.472656 345.917969 C 270.390625 345.507812 270.347656 345.09375 270.347656 344.675781 C 270.347656 344.253906 270.390625 343.839844 270.472656 343.429688 C 270.554688 343.019531 270.679688 342.621094 270.839844 342.230469 C 271 341.84375 271.195312 341.476562 271.429688 341.128906 C 271.664062 340.78125 271.929688 340.460938 272.226562 340.164062 C 272.523438 339.867188 272.84375 339.601562 273.191406 339.371094 C 273.542969 339.136719 273.910156 338.941406 274.296875 338.78125 C 274.683594 338.617188 275.082031 338.496094 275.492188 338.414062 C 275.902344 338.332031 276.320312 338.292969 276.738281 338.292969 L 276.738281 338.902344 C 276.359375 338.902344 275.984375 338.941406 275.617188 339.015625 C 275.246094 339.089844 274.886719 339.203125 274.535156 339.347656 C 274.1875 339.492188 273.855469 339.671875 273.542969 339.882812 C 273.230469 340.09375 272.9375 340.332031 272.671875 340.601562 C 272.40625 340.867188 272.167969 341.160156 271.957031 341.472656 C 271.75 341.789062 271.574219 342.121094 271.429688 342.46875 C 271.285156 342.820312 271.175781 343.179688 271.101562 343.550781 C 271.03125 343.921875 270.992188 344.296875 270.992188 344.675781 C 270.992188 345.050781 271.027344 345.425781 271.101562 345.800781 C 271.171875 346.171875 271.28125 346.53125 271.425781 346.882812 C 271.570312 347.230469 271.746094 347.566406 271.953125 347.878906 C 272.164062 348.195312 272.402344 348.488281 272.667969 348.757812 C 272.933594 349.027344 273.226562 349.265625 273.539062 349.476562 C 273.851562 349.6875 274.183594 349.867188 274.535156 350.015625 C 274.882812 350.160156 275.242188 350.269531 275.613281 350.347656 C 275.984375 350.421875 276.359375 350.460938 276.738281 350.460938 Z M 276.738281 351.046875 " fill-opacity="1" fill-rule="evenodd"/><path fill="#ffffff" d="M 274.109375 340.867188 L 276.683594 340.867188 C 277.667969 340.867188 278.242188 341.007812 278.730469 341.382812 C 279.226562 341.757812 279.476562 342.257812 279.476562 342.882812 C 279.476562 343.773438 278.835938 344.476562 277.800781 344.6875 C 278.308594 344.839844 278.535156 344.96875 278.753906 345.226562 C 279.023438 345.554688 279.140625 345.894531 279.339844 346.960938 L 279.457031 347.535156 C 279.53125 347.957031 279.554688 348.027344 279.699219 348.269531 L 278.929688 348.269531 C 278.773438 347.945312 278.742188 347.816406 278.652344 347.3125 C 278.382812 345.789062 278.347656 345.683594 277.972656 345.324219 C 277.679688 345.042969 277.28125 344.949219 276.4375 344.949219 L 274.8125 344.949219 L 274.8125 348.273438 L 274.109375 348.273438 Z M 276.707031 344.371094 C 277.972656 344.371094 278.742188 343.808594 278.742188 342.878906 C 278.742188 341.90625 277.996094 341.394531 276.585938 341.394531 L 274.804688 341.394531 L 274.804688 344.367188 L 276.707031 344.367188 Z M 276.707031 344.371094 " fill-opacity="1" fill-rule="evenodd"/><path fill="#ffffff" d="M 276.738281 351.046875 C 280.265625 351.046875 283.144531 348.210938 283.144531 344.675781 C 283.144531 341.136719 280.265625 338.292969 276.738281 338.292969 L 276.738281 338.902344 C 279.90625 338.902344 282.457031 341.484375 282.476562 344.675781 C 282.476562 347.878906 279.90625 350.460938 276.738281 350.460938 Z M 276.738281 351.046875 " fill-opacity="1" fill-rule="evenodd"/></svg>