<svg xmlns="http://www.w3.org/2000/svg" xmlns:xlink="http://www.w3.org/1999/xlink" width="500" zoomAndPan="magnify" viewBox="0 0 375 374.999991" height="500" preserveAspectRatio="xMidYMid meet" version="1.0"><defs><clipPath id="b4bb722e25"><path d="M 69.261719 6.855469 L 305.511719 6.855469 L 305.511719 368.355469 L 69.261719 368.355469 Z M 69.261719 6.855469 " clip-rule="nonzero"/></clipPath></defs><path fill="#00bb31" d="M 229.632812 31.746094 L 225.453125 45.984375 C 241.21875 57.527344 251.488281 76.167969 251.488281 97.164062 C 251.488281 120.109375 239.234375 140.246094 220.933594 151.371094 L 225.765625 164.890625 C 249.507812 151.648438 265.574219 126.285156 265.574219 97.164062 C 265.574219 69.65625 251.246094 45.496094 229.632812 31.746094 M 124.683594 97.167969 C 124.683594 76.167969 134.945312 57.53125 150.714844 45.984375 L 146.539062 31.746094 C 124.925781 45.496094 110.585938 69.660156 110.585938 97.167969 C 110.585938 126.289062 126.652344 151.648438 150.40625 164.894531 L 155.238281 151.375 C 136.933594 140.246094 124.683594 120.113281 124.683594 97.167969 " fill-opacity="1" fill-rule="nonzero"/><g clip-path="url(#b4bb722e25)"><path fill="#ffffff" d="M 201.496094 318.589844 L 197.21875 318.589844 L 197.21875 312.890625 L 201.496094 312.890625 C 203.847656 312.890625 204.738281 314.097656 204.738281 315.738281 C 204.738281 317.375 203.847656 318.589844 201.496094 318.589844 M 210.441406 315.738281 C 210.441406 310.859375 206.480469 307.757812 201.417969 307.757812 L 191.511719 307.757812 L 191.511719 332.707031 L 197.21875 332.707031 L 197.21875 323.726562 L 200.28125 323.726562 L 205.273438 332.707031 L 211.683594 332.707031 L 206.132812 322.6875 C 208.65625 321.261719 210.441406 319.023438 210.441406 315.738281 M 81.675781 312.382812 C 84.347656 312.382812 86.128906 313.878906 86.804688 316.695312 L 92.570312 315.554688 C 91.539062 310.214844 87.449219 307.1875 81.714844 307.1875 C 74.699219 307.1875 69.496094 312.140625 69.496094 320.21875 C 69.496094 328.300781 74.625 333.261719 81.570312 333.261719 C 87.308594 333.261719 91.402344 329.90625 92.570312 324.355469 L 86.949219 323.25 C 86.378906 325.917969 84.636719 328.058594 81.570312 328.058594 C 77.972656 328.058594 75.265625 325.246094 75.265625 320.222656 C 75.265625 315.199219 78.121094 312.386719 81.675781 312.386719 M 232.53125 327.574219 L 220.695312 327.574219 L 220.695312 322.6875 L 231.316406 322.6875 L 231.316406 317.558594 L 220.695312 317.558594 L 220.695312 312.894531 L 232.242188 312.894531 L 232.242188 307.757812 L 214.992188 307.757812 L 214.992188 332.707031 L 232.527344 332.707031 Z M 143.464844 307.757812 L 137.910156 307.757812 L 137.910156 323.511719 L 128.246094 307.757812 L 122.085938 307.757812 L 122.085938 332.707031 L 127.644531 332.707031 L 127.644531 316.953125 L 137.304688 332.707031 L 143.464844 332.707031 Z M 106.550781 328.125 C 102.992188 328.125 100.179688 325.570312 100.179688 320.21875 C 100.179688 314.871094 102.992188 312.316406 106.550781 312.316406 C 110.109375 312.316406 112.921875 314.878906 112.921875 320.21875 C 112.921875 325.5625 110.117188 328.125 106.550781 328.125 M 106.550781 307.1875 C 99.21875 307.1875 94.480469 312.140625 94.480469 320.21875 C 94.480469 328.300781 99.21875 333.261719 106.550781 333.261719 C 113.886719 333.261719 118.628906 328.308594 118.628906 320.21875 C 118.628906 312.132812 113.886719 307.1875 106.550781 307.1875 M 186.785156 327.570312 L 174.953125 327.570312 L 174.953125 322.683594 L 185.574219 322.683594 L 185.574219 317.554688 L 174.953125 317.554688 L 174.953125 312.890625 L 186.496094 312.890625 L 186.496094 307.753906 L 169.246094 307.753906 L 169.246094 332.707031 L 186.785156 332.707031 Z M 273.589844 312.386719 C 276.261719 312.386719 278.042969 313.878906 278.71875 316.695312 L 284.484375 315.554688 C 283.453125 310.214844 279.355469 307.1875 273.628906 307.1875 C 266.613281 307.1875 261.410156 312.140625 261.410156 320.21875 C 261.410156 328.300781 266.539062 333.261719 273.488281 333.261719 C 279.222656 333.261719 283.3125 329.90625 284.484375 324.355469 L 278.863281 323.25 C 278.289062 325.917969 276.550781 328.058594 273.484375 328.058594 C 269.886719 328.058594 267.179688 325.246094 267.179688 320.222656 C 267.179688 315.199219 270.027344 312.386719 273.589844 312.386719 M 164.742188 312.894531 L 164.742188 307.757812 L 147.492188 307.757812 L 147.492188 332.710938 L 153.195312 332.710938 L 153.195312 322.6875 L 163.816406 322.6875 L 163.816406 317.558594 L 153.195312 317.558594 L 153.195312 312.894531 Z M 293.664062 322.6875 L 304.285156 322.6875 L 304.285156 317.558594 L 293.664062 317.558594 L 293.664062 312.894531 L 305.210938 312.894531 L 305.210938 307.757812 L 287.957031 307.757812 L 287.957031 332.710938 L 305.496094 332.710938 L 305.496094 327.574219 L 293.660156 327.574219 Z M 252.121094 323.515625 L 242.464844 307.761719 L 236.296875 307.761719 L 236.296875 332.710938 L 241.859375 332.710938 L 241.859375 316.957031 L 251.515625 332.710938 L 257.683594 332.710938 L 257.683594 307.761719 L 252.121094 307.761719 Z M 204.824219 207.640625 L 212.394531 209.605469 L 213.59375 204.988281 L 205.808594 202.96875 C 201.539062 201.863281 198.621094 203.460938 197.582031 207.46875 L 194.402344 219.742188 C 194.25 220.308594 194.308594 220.839844 194.574219 221.289062 C 194.84375 221.738281 195.273438 222.046875 195.84375 222.191406 L 198.730469 222.941406 L 200.78125 215.007812 L 209.542969 217.277344 L 210.726562 212.707031 L 201.964844 210.441406 L 202.296875 209.128906 C 202.75 207.382812 203.269531 207.238281 204.824219 207.640625 M 180.253906 200.875 L 167.617188 203.4375 C 167.058594 203.527344 166.617188 203.808594 166.296875 204.273438 C 166.003906 204.707031 165.925781 205.234375 166.042969 205.8125 L 168.5625 218.222656 C 168.972656 220.242188 169.875 221.691406 171.25 222.539062 C 172.160156 223.101562 173.25 223.382812 174.511719 223.382812 C 175.199219 223.378906 175.878906 223.304688 176.550781 223.164062 L 184.457031 221.554688 L 183.5 216.875 L 175.816406 218.4375 C 174.246094 218.757812 173.738281 218.582031 173.382812 216.816406 L 173.109375 215.480469 L 181.988281 213.683594 L 181.058594 209.046875 L 172.167969 210.855469 L 171.492188 207.53125 L 181.203125 205.558594 Z M 233.792969 218.457031 C 234.03125 217.730469 234.203125 216.660156 233 215.726562 L 232.226562 215.136719 C 231.027344 214.210938 230.078125 214.613281 229.386719 215.058594 L 211.402344 226.695312 L 216.097656 229.359375 L 227.566406 221.941406 L 225.585938 228.609375 L 223.847656 227.296875 L 220.84375 229.449219 L 224.574219 232.242188 L 223.703125 235.230469 L 227.824219 239 Z M 136.285156 214.886719 C 150.480469 202.632812 168.875 195.890625 188.082031 195.890625 C 207.289062 195.890625 225.683594 202.636719 239.878906 214.886719 C 241.339844 216.152344 242.753906 217.46875 244.113281 218.84375 L 246.789062 215.546875 C 245.460938 214.21875 244.082031 212.929688 242.640625 211.691406 C 227.679688 198.773438 208.304688 191.664062 188.082031 191.664062 C 167.859375 191.664062 148.484375 198.773438 133.523438 211.691406 C 132.09375 212.925781 130.707031 214.210938 129.375 215.546875 L 132.042969 218.84375 C 133.394531 217.480469 134.804688 216.160156 136.285156 214.886719 M 188.082031 230.808594 C 201.765625 230.808594 214.375 237.148438 221.792969 246.382812 L 224.378906 243.183594 C 216.21875 233.417969 202.835938 226.820312 188.082031 226.820312 C 173.328125 226.820312 159.945312 233.417969 151.785156 243.183594 L 154.371094 246.382812 C 161.789062 237.148438 174.398438 230.808594 188.082031 230.808594 M 153.574219 228.898438 C 152.601562 229.675781 151.480469 230.066406 150.476562 229.953125 C 149.21875 229.808594 148.453125 229.285156 147.195312 227.734375 L 139.964844 218.835938 L 136.054688 222.007812 L 143.9375 231.703125 C 145.613281 233.757812 147.519531 234.859375 149.773438 235.0625 C 150.035156 235.085938 150.296875 235.097656 150.5625 235.097656 C 152.746094 235.121094 154.769531 234.355469 156.730469 232.761719 C 158.921875 230.980469 160.121094 228.902344 160.402344 226.421875 C 160.660156 224.175781 159.96875 222.082031 158.300781 220.027344 L 150.425781 210.332031 L 146.527344 213.503906 L 153.753906 222.402344 C 155.015625 223.949219 155.363281 224.804688 155.25 226.074219 C 155.160156 227.074219 154.554688 228.097656 153.574219 228.894531 M 158.300781 263.890625 L 165.625 263.890625 C 169.652344 263.890625 171.167969 265.960938 171.167969 268.769531 C 171.167969 271.574219 169.652344 273.644531 165.625 273.644531 L 158.300781 273.644531 Z M 172.085938 297.796875 L 183.0625 297.796875 L 173.550781 280.664062 C 177.882812 278.21875 180.933594 274.382812 180.933594 268.769531 C 180.933594 260.40625 174.15625 255.105469 165.503906 255.105469 L 148.550781 255.105469 L 148.550781 297.796875 L 158.304688 297.796875 L 158.304688 282.429688 L 163.554688 282.429688 Z M 145.34375 357.671875 L 155.972656 357.671875 L 155.972656 352.539062 L 145.34375 352.539062 L 145.34375 347.863281 L 156.898438 347.863281 L 156.898438 342.726562 L 139.640625 342.726562 L 139.640625 367.691406 L 157.183594 367.691406 L 157.183594 362.550781 L 145.34375 362.550781 Z M 170.058594 357.816406 L 172.980469 350.148438 L 175.910156 357.816406 Z M 169.945312 342.726562 L 159.828125 367.691406 L 166.273438 367.691406 L 168.09375 362.945312 L 177.867188 362.945312 L 179.6875 367.691406 L 186.132812 367.691406 L 176.007812 342.726562 Z M 277.984375 280.902344 L 282.992188 267.785156 L 287.988281 280.902344 Z M 288.171875 255.105469 L 277.800781 255.105469 L 260.484375 297.796875 L 271.523438 297.796875 L 274.632812 289.6875 L 291.34375 289.6875 L 294.453125 297.796875 L 305.5 297.796875 Z M 197.367188 358.75 L 205.078125 358.75 L 205.078125 360.53125 C 203.824219 361.929688 201.828125 363 199.363281 363 C 195.046875 363 191.800781 360.464844 191.800781 355.222656 C 191.800781 349.980469 195.335938 347.441406 198.726562 347.441406 C 201.828125 347.441406 203.824219 348.941406 204.644531 351.726562 L 210.105469 350.117188 C 208.824219 345.445312 205.183594 342.304688 198.796875 342.304688 C 191.945312 342.304688 186.097656 347.226562 186.097656 355.222656 C 186.097656 363.21875 191.871094 368.132812 198.863281 368.132812 C 204.289062 368.132812 207.640625 365.992188 210.386719 362.640625 L 210.386719 354.289062 L 197.371094 354.289062 Z M 228.441406 357.566406 C 228.441406 360.921875 226.726562 362.992188 223.59375 362.992188 C 220.460938 362.992188 218.746094 360.921875 218.746094 357.566406 L 218.746094 342.734375 L 213.042969 342.734375 L 213.042969 357.886719 C 213.042969 364.839844 217.851562 368.121094 223.59375 368.121094 C 229.335938 368.121094 234.148438 364.804688 234.148438 357.886719 L 234.148438 342.734375 L 228.441406 342.734375 Z M 243.074219 357.671875 L 253.703125 357.671875 L 253.703125 352.539062 L 243.074219 352.539062 L 243.074219 347.863281 L 254.625 347.863281 L 254.625 342.726562 L 237.367188 342.726562 L 237.367188 367.691406 L 254.90625 367.691406 L 254.90625 362.554688 L 243.070312 362.554688 Z M 125.121094 342.730469 L 119.417969 342.730469 L 119.417969 367.695312 L 136.964844 367.695312 L 136.964844 362.550781 L 125.121094 362.550781 Z M 142.371094 255.105469 L 132.617188 255.105469 L 132.617188 280.480469 C 132.617188 286.214844 129.6875 289.75 124.320312 289.75 C 118.949219 289.75 116.027344 286.214844 116.027344 280.480469 L 116.027344 255.105469 L 106.265625 255.105469 L 106.265625 281.027344 C 106.265625 292.921875 114.503906 298.535156 124.320312 298.535156 C 134.136719 298.535156 142.375 292.863281 142.375 281.027344 Z M 242.414062 263.890625 L 248.878906 263.890625 C 253.207031 263.890625 254.914062 266.140625 254.914062 269.253906 C 254.914062 272.363281 253.207031 274.625 248.878906 274.625 L 242.414062 274.625 Z M 232.652344 297.796875 L 242.414062 297.796875 L 242.414062 283.410156 L 249.363281 283.410156 C 257.785156 283.410156 264.679688 278.523438 264.679688 269.253906 C 264.679688 259.984375 257.785156 255.105469 249.363281 255.105469 L 232.652344 255.105469 Z M 206.191406 262.902344 C 212.285156 262.902344 217.101562 267.296875 217.101562 276.4375 C 217.101562 285.578125 212.285156 289.96875 206.191406 289.96875 C 200.101562 289.96875 195.277344 285.578125 195.277344 276.4375 C 195.277344 267.296875 200.09375 262.902344 206.191406 262.902344 M 206.191406 298.746094 C 218.746094 298.746094 226.859375 290.273438 226.859375 276.4375 C 226.859375 262.601562 218.746094 254.128906 206.191406 254.128906 C 193.636719 254.128906 185.527344 262.601562 185.527344 276.4375 C 185.527344 290.273438 193.628906 298.746094 206.191406 298.746094 M 80.425781 280.664062 L 98.601562 280.664062 L 98.601562 271.878906 L 80.425781 271.878906 L 80.425781 263.890625 L 100.1875 263.890625 L 100.1875 255.109375 L 70.667969 255.109375 L 70.667969 297.800781 L 100.679688 297.800781 L 100.679688 289.015625 L 80.425781 289.015625 Z M 203.742188 91.210938 C 207.019531 52.355469 223.199219 17.613281 224.484375 14.640625 C 218.496094 11.566406 211.949219 9.898438 209.691406 9.316406 C 201.277344 48.222656 203.492188 85.074219 203.742188 91.210938 M 178.625 112.324219 C 176 95.882812 170.699219 76.664062 170.699219 76.664062 C 177.660156 119.257812 166.183594 153.179688 166.183594 153.179688 L 209.976562 153.179688 C 189.664062 78.589844 205.152344 11.300781 205.753906 8.449219 C 202.378906 7.691406 195.421875 6.941406 190.867188 6.878906 C 190.390625 70.464844 201.914062 112.324219 201.914062 112.324219 L 197.226562 112.324219 C 187.03125 70.882812 186.015625 18.726562 186.332031 6.855469 C 178.0625 6.917969 171.5 8.253906 171.5 8.253906 L 192.550781 112.324219 L 187.902344 112.324219 L 167.039062 9.175781 C 159.179688 11.042969 154.160156 13.425781 151.6875 14.640625 C 174.105469 55.496094 183.269531 112.324219 183.269531 112.324219 Z M 164.046875 160.234375 L 158.738281 174.753906 L 217.433594 174.753906 L 212.132812 160.234375 Z M 273.222656 342.730469 L 270.96875 348.632812 L 268.71875 342.730469 L 267.335938 342.730469 L 267.335938 350.117188 L 268.632812 350.117188 L 268.632812 345.6875 L 270.328125 350.117188 L 271.609375 350.117188 L 273.304688 345.6875 L 273.304688 350.117188 L 274.601562 350.117188 L 274.601562 342.730469 Z M 260.625 343.902344 L 262.894531 343.902344 L 262.894531 350.121094 L 264.175781 350.121094 L 264.175781 343.902344 L 266.449219 343.902344 L 266.449219 342.734375 L 260.625 342.734375 Z M 260.625 343.902344 " fill-opacity="1" fill-rule="nonzero"/></g></svg>