<svg xmlns="http://www.w3.org/2000/svg" xmlns:xlink="http://www.w3.org/1999/xlink" width="500" zoomAndPan="magnify" viewBox="0 0 375 374.999991" height="500" preserveAspectRatio="xMidYMid meet" version="1.0"><defs><clipPath id="8b0f482763"><path d="M 79.699219 22.804688 L 294.949219 22.804688 L 294.949219 352.054688 L 79.699219 352.054688 Z M 79.699219 22.804688 " clip-rule="nonzero"/></clipPath></defs><path fill="#00bb31" d="M 225.917969 45.496094 L 222.105469 58.476562 C 236.476562 69.003906 245.84375 85.996094 245.84375 105.140625 C 245.84375 126.0625 234.671875 144.417969 217.984375 154.566406 L 222.390625 166.890625 C 244.039062 154.816406 258.6875 131.691406 258.6875 105.140625 C 258.6875 80.0625 245.621094 58.035156 225.917969 45.496094 M 130.230469 105.144531 C 130.230469 86 139.585938 69.003906 153.964844 58.480469 L 150.15625 45.496094 C 130.449219 58.035156 117.378906 80.066406 117.378906 105.144531 C 117.378906 131.695312 132.027344 154.816406 153.683594 166.890625 L 158.085938 154.566406 C 141.398438 144.421875 130.230469 126.0625 130.230469 105.144531 " fill-opacity="1" fill-rule="nonzero"/><g clip-path="url(#8b0f482763)"><path fill="#ffffff" d="M 200.265625 307.023438 L 196.363281 307.023438 L 196.363281 301.828125 L 200.265625 301.828125 C 202.410156 301.828125 203.21875 302.929688 203.21875 304.421875 C 203.21875 305.917969 202.410156 307.023438 200.265625 307.023438 M 208.417969 304.421875 C 208.417969 299.972656 204.808594 297.148438 200.195312 297.148438 L 191.160156 297.148438 L 191.160156 319.894531 L 196.363281 319.894531 L 196.363281 311.707031 L 199.15625 311.707031 L 203.707031 319.894531 L 209.550781 319.894531 L 204.488281 310.757812 C 206.792969 309.460938 208.417969 307.417969 208.417969 304.425781 M 91.019531 301.367188 C 93.453125 301.367188 95.078125 302.730469 95.695312 305.296875 L 100.953125 304.257812 C 100.011719 299.386719 96.285156 296.628906 91.054688 296.628906 C 84.65625 296.628906 79.914062 301.144531 79.914062 308.511719 C 79.914062 315.875 84.589844 320.398438 90.925781 320.398438 C 96.152344 320.398438 99.886719 317.34375 100.953125 312.28125 L 95.828125 311.269531 C 95.308594 313.707031 93.71875 315.65625 90.921875 315.65625 C 87.644531 315.65625 85.175781 313.089844 85.175781 308.511719 C 85.175781 303.933594 87.777344 301.367188 91.019531 301.367188 M 228.558594 315.214844 L 217.769531 315.214844 L 217.769531 310.757812 L 227.453125 310.757812 L 227.453125 306.082031 L 217.769531 306.082031 L 217.769531 301.828125 L 228.292969 301.828125 L 228.292969 297.148438 L 212.566406 297.148438 L 212.566406 319.894531 L 228.558594 319.894531 Z M 147.355469 297.148438 L 142.289062 297.148438 L 142.289062 311.511719 L 133.476562 297.148438 L 127.863281 297.148438 L 127.863281 319.894531 L 132.929688 319.894531 L 132.929688 305.53125 L 141.734375 319.894531 L 147.351562 319.894531 Z M 113.699219 315.71875 C 110.457031 315.71875 107.890625 313.386719 107.890625 308.511719 C 107.890625 303.632812 110.457031 301.304688 113.699219 301.304688 C 116.941406 301.304688 119.507812 303.640625 119.507812 308.511719 C 119.507812 313.378906 116.949219 315.71875 113.699219 315.71875 M 113.699219 296.628906 C 107.011719 296.628906 102.695312 301.144531 102.695312 308.511719 C 102.695312 315.875 107.011719 320.398438 113.699219 320.398438 C 120.386719 320.398438 124.710938 315.882812 124.710938 308.511719 C 124.710938 301.136719 120.386719 296.628906 113.699219 296.628906 M 186.851562 315.210938 L 176.0625 315.210938 L 176.0625 310.757812 L 185.746094 310.757812 L 185.746094 306.082031 L 176.0625 306.082031 L 176.0625 301.828125 L 186.589844 301.828125 L 186.589844 297.144531 L 170.859375 297.144531 L 170.859375 319.894531 L 186.851562 319.894531 Z M 265.996094 301.367188 C 268.429688 301.367188 270.054688 302.730469 270.671875 305.296875 L 275.929688 304.257812 C 274.988281 299.386719 271.253906 296.628906 266.03125 296.628906 C 259.632812 296.628906 254.890625 301.144531 254.890625 308.511719 C 254.890625 315.875 259.566406 320.398438 265.898438 320.398438 C 271.128906 320.398438 274.859375 317.34375 275.929688 312.28125 L 270.804688 311.269531 C 270.277344 313.707031 268.695312 315.65625 265.898438 315.65625 C 262.621094 315.65625 260.152344 313.089844 260.152344 308.511719 C 260.152344 303.933594 262.746094 301.367188 265.996094 301.367188 M 166.753906 301.832031 L 166.753906 297.148438 L 151.023438 297.148438 L 151.023438 319.898438 L 156.226562 319.898438 L 156.226562 310.761719 L 165.910156 310.761719 L 165.910156 306.085938 L 156.226562 306.085938 L 156.226562 301.832031 Z M 284.296875 310.761719 L 293.980469 310.761719 L 293.980469 306.085938 L 284.296875 306.085938 L 284.296875 301.832031 L 294.824219 301.832031 L 294.824219 297.148438 L 279.09375 297.148438 L 279.09375 319.898438 L 295.085938 319.898438 L 295.085938 315.214844 L 284.292969 315.214844 Z M 246.421875 311.515625 L 237.617188 297.152344 L 231.992188 297.152344 L 231.992188 319.898438 L 237.0625 319.898438 L 237.0625 305.535156 L 245.867188 319.898438 L 251.492188 319.898438 L 251.492188 297.152344 L 246.421875 297.152344 Z M 203.300781 205.867188 L 210.203125 207.660156 L 211.292969 203.449219 L 204.195312 201.609375 C 200.304688 200.597656 197.640625 202.058594 196.695312 205.707031 L 193.796875 216.898438 C 193.65625 217.417969 193.710938 217.902344 193.953125 218.308594 C 194.195312 218.71875 194.589844 219.003906 195.109375 219.132812 L 197.742188 219.820312 L 199.609375 212.582031 L 207.601562 214.652344 L 208.679688 210.488281 L 200.691406 208.417969 L 200.992188 207.222656 C 201.410156 205.632812 201.878906 205.5 203.296875 205.867188 M 180.894531 199.699219 L 169.375 202.035156 C 168.863281 202.117188 168.464844 202.371094 168.167969 202.796875 C 167.90625 203.191406 167.832031 203.675781 167.941406 204.199219 L 170.238281 215.515625 C 170.609375 217.355469 171.433594 218.675781 172.6875 219.453125 C 173.515625 219.964844 174.511719 220.21875 175.660156 220.21875 C 176.289062 220.214844 176.90625 220.148438 177.523438 220.019531 L 184.726562 218.554688 L 183.855469 214.285156 L 176.851562 215.710938 C 175.417969 216.003906 174.957031 215.84375 174.628906 214.230469 L 174.378906 213.015625 L 182.480469 211.375 L 181.628906 207.148438 L 173.523438 208.796875 L 172.90625 205.765625 L 181.761719 203.96875 Z M 229.710938 215.730469 C 229.925781 215.066406 230.085938 214.089844 228.984375 213.242188 L 228.28125 212.699219 C 227.1875 211.855469 226.324219 212.222656 225.695312 212.632812 L 209.292969 223.242188 L 213.574219 225.667969 L 224.03125 218.90625 L 222.226562 224.984375 L 220.640625 223.789062 L 217.902344 225.75 L 221.304688 228.296875 L 220.511719 231.023438 L 224.265625 234.460938 Z M 140.808594 212.472656 C 153.75 201.300781 170.519531 195.152344 188.035156 195.152344 C 205.546875 195.152344 222.316406 201.304688 235.257812 212.472656 C 236.589844 213.625 237.878906 214.828125 239.117188 216.082031 L 241.558594 213.074219 C 240.347656 211.863281 239.089844 210.6875 237.777344 209.5625 C 224.136719 197.785156 206.472656 191.300781 188.035156 191.300781 C 169.59375 191.300781 151.929688 197.78125 138.289062 209.5625 C 136.984375 210.683594 135.722656 211.855469 134.507812 213.074219 L 136.941406 216.082031 C 138.171875 214.835938 139.460938 213.632812 140.808594 212.472656 M 188.035156 226.988281 C 200.511719 226.988281 212.003906 232.773438 218.769531 241.1875 L 221.128906 238.269531 C 213.6875 229.371094 201.484375 223.351562 188.035156 223.351562 C 174.582031 223.351562 162.382812 229.367188 154.9375 238.269531 L 157.296875 241.1875 C 164.0625 232.773438 175.558594 226.988281 188.035156 226.988281 M 156.570312 225.246094 C 155.683594 225.957031 154.660156 226.3125 153.746094 226.207031 C 152.601562 226.078125 151.902344 225.597656 150.753906 224.1875 L 144.160156 216.074219 L 140.597656 218.964844 L 147.785156 227.804688 C 149.3125 229.679688 151.050781 230.683594 153.105469 230.867188 C 153.34375 230.890625 153.582031 230.902344 153.824219 230.902344 C 155.816406 230.921875 157.664062 230.222656 159.449219 228.773438 C 161.445312 227.148438 162.539062 225.253906 162.796875 222.988281 C 163.03125 220.941406 162.402344 219.035156 160.878906 217.160156 L 153.699219 208.320312 L 150.144531 211.210938 L 156.738281 219.324219 C 157.882812 220.734375 158.203125 221.515625 158.101562 222.671875 C 158.015625 223.585938 157.464844 224.519531 156.570312 225.246094 M 160.882812 257.152344 L 167.554688 257.152344 C 171.230469 257.152344 172.613281 259.039062 172.613281 261.597656 C 172.613281 264.160156 171.230469 266.046875 167.554688 266.046875 L 160.882812 266.046875 Z M 173.449219 288.066406 L 183.457031 288.066406 L 174.785156 272.445312 C 178.734375 270.214844 181.515625 266.71875 181.515625 261.597656 C 181.515625 253.976562 175.339844 249.144531 167.445312 249.144531 L 151.988281 249.144531 L 151.988281 288.066406 L 160.882812 288.066406 L 160.882812 274.054688 L 165.667969 274.054688 Z M 149.066406 342.65625 L 158.757812 342.65625 L 158.757812 337.976562 L 149.066406 337.976562 L 149.066406 333.714844 L 159.601562 333.714844 L 159.601562 329.03125 L 143.867188 329.03125 L 143.867188 351.792969 L 159.863281 351.792969 L 159.863281 347.105469 L 149.066406 347.105469 Z M 171.601562 342.789062 L 174.265625 335.796875 L 176.933594 342.789062 Z M 171.496094 329.03125 L 162.269531 351.792969 L 168.148438 351.792969 L 169.8125 347.464844 L 178.71875 347.464844 L 180.378906 351.792969 L 186.257812 351.792969 L 177.023438 329.03125 Z M 270 272.664062 L 274.566406 260.703125 L 279.121094 272.664062 Z M 279.289062 249.140625 L 269.835938 249.140625 L 254.042969 288.066406 L 264.109375 288.066406 L 266.945312 280.671875 L 282.179688 280.671875 L 285.015625 288.066406 L 295.089844 288.066406 Z M 196.5 343.640625 L 203.527344 343.640625 L 203.527344 345.265625 C 202.386719 346.539062 200.566406 347.511719 198.320312 347.511719 C 194.382812 347.511719 191.425781 345.203125 191.425781 340.421875 C 191.425781 335.644531 194.648438 333.328125 197.738281 333.328125 C 200.566406 333.328125 202.386719 334.695312 203.132812 337.234375 L 208.113281 335.769531 C 206.945312 331.507812 203.625 328.644531 197.800781 328.644531 C 191.558594 328.644531 186.222656 333.132812 186.222656 340.421875 C 186.222656 347.714844 191.488281 352.195312 197.863281 352.195312 C 202.808594 352.195312 205.867188 350.242188 208.371094 347.1875 L 208.371094 339.570312 L 196.503906 339.570312 Z M 224.828125 342.5625 C 224.828125 345.617188 223.265625 347.503906 220.410156 347.503906 C 217.554688 347.503906 215.992188 345.617188 215.992188 342.5625 L 215.992188 329.039062 L 210.789062 329.039062 L 210.789062 342.851562 C 210.789062 349.191406 215.175781 352.183594 220.414062 352.183594 C 225.648438 352.183594 230.035156 349.160156 230.035156 342.851562 L 230.035156 329.039062 L 224.832031 329.039062 Z M 238.171875 342.65625 L 247.863281 342.65625 L 247.863281 337.976562 L 238.171875 337.976562 L 238.171875 333.714844 L 248.703125 333.714844 L 248.703125 329.03125 L 232.96875 329.03125 L 232.96875 351.792969 L 248.960938 351.792969 L 248.960938 347.109375 L 238.167969 347.109375 Z M 130.628906 329.035156 L 125.429688 329.035156 L 125.429688 351.792969 L 141.425781 351.792969 L 141.425781 347.105469 L 130.628906 347.105469 Z M 146.359375 249.144531 L 137.464844 249.144531 L 137.464844 272.277344 C 137.464844 277.503906 134.792969 280.726562 129.898438 280.726562 C 125.003906 280.726562 122.335938 277.503906 122.335938 272.277344 L 122.335938 249.144531 L 113.4375 249.144531 L 113.4375 272.777344 C 113.4375 283.621094 120.949219 288.738281 129.898438 288.738281 C 138.847656 288.738281 146.359375 283.566406 146.359375 272.777344 Z M 237.570312 257.152344 L 243.464844 257.152344 C 247.410156 257.152344 248.96875 259.203125 248.96875 262.042969 C 248.96875 264.878906 247.410156 266.9375 243.464844 266.9375 L 237.570312 266.9375 Z M 228.671875 288.066406 L 237.570312 288.066406 L 237.570312 274.945312 L 243.90625 274.945312 C 251.582031 274.945312 257.871094 270.492188 257.871094 262.042969 C 257.871094 253.589844 251.582031 249.144531 243.90625 249.144531 L 228.671875 249.144531 Z M 204.546875 256.25 C 210.101562 256.25 214.492188 260.257812 214.492188 268.589844 C 214.492188 276.925781 210.101562 280.929688 204.546875 280.929688 C 198.992188 280.929688 194.59375 276.925781 194.59375 268.589844 C 194.59375 260.257812 198.984375 256.25 204.546875 256.25 M 204.546875 288.929688 C 215.992188 288.929688 223.386719 281.207031 223.386719 268.589844 C 223.386719 255.976562 215.992188 248.25 204.546875 248.25 C 193.097656 248.25 185.707031 255.976562 185.707031 268.589844 C 185.707031 281.207031 193.09375 288.929688 204.546875 288.929688 M 89.878906 272.445312 L 106.449219 272.445312 L 106.449219 264.433594 L 89.878906 264.433594 L 89.878906 257.152344 L 107.898438 257.152344 L 107.898438 249.144531 L 80.984375 249.144531 L 80.984375 288.070312 L 108.34375 288.070312 L 108.34375 280.0625 L 89.878906 280.0625 Z M 202.3125 99.714844 C 205.300781 64.289062 220.050781 32.613281 221.222656 29.898438 C 215.765625 27.097656 209.796875 25.578125 207.734375 25.046875 C 200.0625 60.519531 202.082031 94.117188 202.3125 99.714844 M 179.410156 118.960938 C 177.015625 103.972656 172.183594 86.449219 172.183594 86.449219 C 178.53125 125.285156 168.066406 156.214844 168.066406 156.214844 L 207.996094 156.214844 C 189.476562 88.207031 203.597656 26.855469 204.144531 24.253906 C 201.066406 23.566406 194.722656 22.878906 190.574219 22.824219 C 190.140625 80.796875 200.644531 118.960938 200.644531 118.960938 L 196.371094 118.960938 C 187.074219 81.179688 186.148438 33.628906 186.4375 22.804688 C 178.898438 22.859375 172.917969 24.078125 172.917969 24.078125 L 192.109375 118.960938 L 187.867188 118.960938 L 168.847656 24.917969 C 161.683594 26.621094 157.105469 28.792969 154.851562 29.898438 C 175.289062 67.152344 183.644531 118.960938 183.644531 118.960938 Z M 166.117188 162.644531 L 161.277344 175.882812 L 214.796875 175.882812 L 209.960938 162.644531 Z M 265.660156 329.035156 L 263.605469 334.414062 L 261.550781 329.035156 L 260.289062 329.035156 L 260.289062 335.769531 L 261.476562 335.769531 L 261.476562 331.730469 L 263.019531 335.769531 L 264.191406 335.769531 L 265.734375 331.730469 L 265.734375 335.769531 L 266.917969 335.769531 L 266.917969 329.035156 Z M 254.171875 330.101562 L 256.242188 330.101562 L 256.242188 335.769531 L 257.410156 335.769531 L 257.410156 330.101562 L 259.484375 330.101562 L 259.484375 329.039062 L 254.171875 329.039062 Z M 254.171875 330.101562 " fill-opacity="1" fill-rule="nonzero"/></g></svg>