<svg xmlns="http://www.w3.org/2000/svg" xmlns:xlink="http://www.w3.org/1999/xlink" width="500" zoomAndPan="magnify" viewBox="0 0 375 374.999991" height="500" preserveAspectRatio="xMidYMid meet" version="1.0"><defs><clipPath id="1bdaaae1cb"><path d="M 150 25.804688 L 184 25.804688 L 184 175 L 150 175 Z M 150 25.804688 " clip-rule="nonzero"/></clipPath><clipPath id="c8bb040ac1"><path d="M 188 25.804688 L 222 25.804688 L 222 175 L 188 175 Z M 188 25.804688 " clip-rule="nonzero"/></clipPath></defs><path fill="#ff6900" d="M 125 120.074219 C 125 99.738281 134.949219 81.683594 150.234375 70.492188 L 146.179688 56.695312 C 125.242188 70.050781 111.363281 93.4375 111.363281 120.074219 C 111.363281 148.273438 126.925781 172.824219 149.910156 185.660156 L 154.605469 172.585938 C 136.875 161.832031 125 142.296875 125 120.074219 Z M 226.648438 56.734375 L 222.597656 70.535156 C 237.882812 81.726562 247.832031 99.777344 247.832031 120.113281 C 247.832031 142.339844 235.957031 161.832031 218.226562 172.625 L 222.917969 185.703125 C 245.90625 172.863281 261.46875 148.316406 261.46875 120.113281 C 261.46875 93.4375 247.550781 70.050781 226.648438 56.734375 Z M 226.648438 56.734375 " fill-opacity="1" fill-rule="nonzero"/><g clip-path="url(#1bdaaae1cb)"><path fill="#ffffff" d="M 172.679688 174.347656 L 163.210938 174.347656 L 177.8125 133.554688 L 150.335938 40.046875 L 183.710938 25.804688 L 183.710938 124.890625 Z M 172.679688 174.347656 " fill-opacity="1" fill-rule="nonzero"/></g><g clip-path="url(#c8bb040ac1)"><path fill="#ffffff" d="M 194.140625 133.554688 L 208.742188 174.347656 L 199.273438 174.347656 L 188.242188 124.890625 L 188.242188 25.804688 L 221.617188 40.046875 Z M 194.140625 133.554688 " fill-opacity="1" fill-rule="nonzero"/></g><path fill="#ffffff" d="M 155.75 195.25 L 160.765625 181.167969 L 211.226562 181.167969 L 216.242188 195.25 Z M 155.75 195.25 " fill-opacity="1" fill-rule="nonzero"/><path fill="#ffffff" d="M 185.996094 134.554688 L 194.859375 174.347656 L 177.128906 174.347656 Z M 185.996094 134.554688 " fill-opacity="1" fill-rule="nonzero"/><path fill="#ffffff" d="M 81.738281 297.78125 L 99.351562 297.78125 L 99.351562 289.277344 L 81.738281 289.277344 L 81.738281 281.535156 L 100.875 281.535156 L 100.875 273.03125 L 72.273438 273.03125 L 72.273438 314.386719 L 101.316406 314.386719 L 101.316406 305.882812 L 81.738281 305.882812 Z M 81.738281 297.78125 " fill-opacity="1" fill-rule="nonzero"/><path fill="#ffffff" d="M 203.527344 315.308594 C 215.679688 315.308594 223.542969 307.085938 223.542969 293.6875 C 223.542969 280.289062 215.679688 272.066406 203.527344 272.066406 C 191.371094 272.066406 183.507812 280.289062 183.507812 293.6875 C 183.507812 307.085938 191.371094 315.308594 203.527344 315.308594 Z M 203.527344 280.613281 C 209.421875 280.613281 214.074219 284.863281 214.074219 293.730469 C 214.074219 302.59375 209.421875 306.847656 203.527344 306.847656 C 197.628906 306.847656 192.976562 302.59375 192.976562 293.730469 C 192.9375 284.863281 197.628906 280.613281 203.527344 280.613281 Z M 203.527344 280.613281 " fill-opacity="1" fill-rule="evenodd"/><path fill="#ffffff" d="M 229.199219 314.386719 L 238.625 314.386719 L 238.625 300.429688 L 245.367188 300.429688 C 253.507812 300.429688 260.207031 295.695312 260.207031 286.710938 C 260.207031 277.722656 253.546875 272.992188 245.367188 272.992188 L 229.199219 272.992188 Z M 238.585938 281.535156 L 244.84375 281.535156 C 249.054688 281.535156 250.699219 283.699219 250.699219 286.75 C 250.699219 289.757812 249.054688 291.964844 244.84375 291.964844 L 238.585938 291.964844 Z M 238.585938 281.535156 " fill-opacity="1" fill-rule="evenodd"/><path fill="#ffffff" d="M 141.710938 273.03125 L 132.242188 273.03125 L 132.242188 297.621094 C 132.242188 303.15625 129.394531 306.605469 124.21875 306.605469 C 119.003906 306.605469 116.199219 303.195312 116.199219 297.621094 L 116.199219 273.03125 L 106.730469 273.03125 L 106.730469 298.140625 C 106.730469 309.65625 114.714844 315.109375 124.21875 315.109375 C 133.726562 315.109375 141.710938 309.613281 141.710938 298.140625 Z M 141.710938 273.03125 " fill-opacity="1" fill-rule="nonzero"/><path fill="#ffffff" d="M 124.980469 324.136719 L 119.488281 324.136719 L 119.488281 348.324219 L 136.453125 348.324219 L 136.453125 343.351562 L 124.980469 343.351562 Z M 124.980469 324.136719 " fill-opacity="1" fill-rule="nonzero"/><path fill="#ffffff" d="M 249.496094 338.617188 L 249.496094 333.644531 L 239.226562 333.644531 L 239.226562 329.109375 L 250.417969 329.109375 L 250.417969 324.136719 L 233.691406 324.136719 L 233.691406 348.324219 L 250.660156 348.324219 L 250.660156 343.351562 L 239.1875 343.351562 L 239.1875 338.617188 Z M 249.496094 338.617188 " fill-opacity="1" fill-rule="nonzero"/><path fill="#ffffff" d="M 225.066406 338.496094 C 225.066406 341.746094 223.421875 343.75 220.375 343.75 C 217.324219 343.75 215.679688 341.746094 215.679688 338.496094 L 215.679688 324.136719 L 210.144531 324.136719 L 210.144531 338.816406 C 210.144531 345.554688 214.796875 348.726562 220.375 348.726562 C 225.949219 348.726562 230.601562 345.515625 230.601562 338.816406 L 230.601562 324.136719 L 225.066406 324.136719 Z M 225.066406 338.496094 " fill-opacity="1" fill-rule="nonzero"/><path fill="#ffffff" d="M 202.441406 339.660156 L 202.441406 341.386719 C 201.238281 342.75 199.3125 343.75 196.90625 343.75 C 192.734375 343.75 189.566406 341.304688 189.566406 336.210938 C 189.566406 331.117188 192.976562 328.667969 196.265625 328.667969 C 199.273438 328.667969 201.199219 330.113281 202 332.800781 L 207.296875 331.234375 C 206.054688 326.703125 202.523438 323.65625 196.34375 323.65625 C 189.726562 323.65625 184.03125 328.429688 184.03125 336.171875 C 184.03125 343.910156 189.644531 348.683594 196.386719 348.683594 C 201.640625 348.683594 204.890625 346.597656 207.539062 343.351562 L 207.539062 335.246094 L 194.941406 335.246094 L 194.941406 339.660156 Z M 202.441406 339.660156 " fill-opacity="1" fill-rule="nonzero"/><path fill="#ffffff" d="M 282.910156 273.03125 L 272.882812 273.03125 L 256.117188 314.386719 L 266.824219 314.386719 L 269.835938 306.527344 L 286 306.527344 L 289.007812 314.386719 L 299.71875 314.386719 Z M 273.042969 298.019531 L 277.898438 285.304688 L 282.75 298.019531 Z M 273.042969 298.019531 " fill-opacity="1" fill-rule="evenodd"/><path fill="#ffffff" d="M 168.425781 324.136719 L 158.597656 348.324219 L 164.855469 348.324219 L 166.621094 343.75 L 176.085938 343.75 L 177.851562 348.324219 L 184.109375 348.324219 L 174.324219 324.136719 Z M 168.507812 338.738281 L 171.355469 331.316406 L 174.203125 338.738281 Z M 168.507812 338.738281 " fill-opacity="1" fill-rule="evenodd"/><path fill="#ffffff" d="M 144.597656 338.617188 L 154.90625 338.617188 L 154.90625 333.644531 L 144.597656 333.644531 L 144.597656 329.109375 L 155.789062 329.109375 L 155.789062 324.136719 L 139.0625 324.136719 L 139.0625 348.324219 L 156.070312 348.324219 L 156.070312 343.351562 L 144.597656 343.351562 Z M 144.597656 338.617188 " fill-opacity="1" fill-rule="nonzero"/><path fill="#ffffff" d="M 170.472656 314.386719 L 181.101562 314.386719 L 171.875 297.78125 C 176.085938 295.414062 179.015625 291.683594 179.015625 286.269531 C 179.015625 278.164062 172.476562 273.03125 164.054688 273.03125 L 147.6875 273.03125 L 147.6875 314.386719 L 157.152344 314.386719 L 157.152344 299.503906 L 162.25 299.503906 Z M 157.152344 281.535156 L 164.253906 281.535156 C 168.144531 281.535156 169.628906 283.539062 169.628906 286.269531 C 169.628906 288.996094 168.144531 291 164.253906 291 L 157.152344 291 Z M 157.152344 281.535156 " fill-opacity="1" fill-rule="evenodd"/><path fill="#ffffff" d="M 152.582031 247.679688 C 151.65625 248.441406 150.535156 248.800781 149.574219 248.679688 C 148.367188 248.5625 147.605469 248.039062 146.402344 246.554688 L 139.382812 237.929688 L 135.613281 241.019531 L 143.234375 250.40625 C 144.839844 252.410156 146.722656 253.453125 148.890625 253.65625 C 149.132812 253.695312 149.410156 253.695312 149.652344 253.695312 C 151.777344 253.695312 153.746094 252.972656 155.628906 251.449219 C 157.753906 249.722656 158.917969 247.71875 159.199219 245.3125 C 159.441406 243.144531 158.796875 241.097656 157.152344 239.132812 L 149.53125 229.746094 L 145.761719 232.835938 L 152.78125 241.460938 C 153.984375 242.945312 154.347656 243.785156 154.226562 245.03125 C 154.105469 245.914062 153.503906 246.875 152.582031 247.679688 Z M 152.582031 247.679688 " fill-opacity="1" fill-rule="nonzero"/><path fill="#ffffff" d="M 185.996094 249.523438 C 199.234375 249.523438 211.46875 255.660156 218.648438 264.605469 L 221.175781 261.515625 C 213.273438 252.050781 200.316406 245.671875 186.035156 245.671875 C 171.753906 245.671875 158.796875 252.050781 150.894531 261.515625 L 153.421875 264.605469 C 160.523438 255.660156 172.71875 249.523438 185.996094 249.523438 Z M 185.996094 249.523438 " fill-opacity="1" fill-rule="nonzero"/><path fill="#ffffff" d="M 135.8125 234.078125 C 149.570312 222.207031 167.382812 215.667969 185.996094 215.667969 C 204.609375 215.667969 222.417969 222.207031 236.179688 234.078125 C 237.625 235.324219 238.988281 236.605469 240.269531 237.929688 L 242.878906 234.722656 C 241.59375 233.4375 240.269531 232.195312 238.867188 230.992188 C 224.386719 218.476562 205.613281 211.617188 186.035156 211.617188 C 166.460938 211.617188 147.6875 218.515625 133.207031 230.992188 C 131.800781 232.195312 130.476562 233.4375 129.195312 234.722656 L 131.800781 237.929688 C 133.003906 236.605469 134.410156 235.324219 135.8125 234.078125 Z M 135.8125 234.078125 " fill-opacity="1" fill-rule="nonzero"/><path fill="#ffffff" d="M 230.242188 237.570312 C 230.484375 236.886719 230.644531 235.84375 229.480469 234.921875 L 228.71875 234.359375 C 227.554688 233.476562 226.632812 233.839844 225.949219 234.28125 L 208.539062 245.550781 L 213.074219 248.121094 L 224.183594 240.9375 L 222.257812 247.398438 L 220.574219 246.113281 L 217.644531 248.199219 L 221.257812 250.886719 L 220.414062 253.773438 L 224.386719 257.425781 Z M 230.242188 237.570312 " fill-opacity="1" fill-rule="nonzero"/><path fill="#ffffff" d="M 178.414062 220.519531 L 166.179688 223.007812 C 165.617188 223.128906 165.175781 223.410156 164.894531 223.808594 C 164.617188 224.210938 164.535156 224.734375 164.65625 225.292969 L 167.101562 237.328125 C 167.503906 239.292969 168.386719 240.699219 169.710938 241.5 C 170.59375 242.0625 171.636719 242.300781 172.878906 242.300781 C 173.480469 242.300781 174.164062 242.222656 174.84375 242.101562 L 182.507812 240.539062 L 181.582031 236.003906 L 174.164062 237.527344 C 172.636719 237.851562 172.15625 237.691406 171.796875 235.964844 L 171.515625 234.679688 L 180.140625 232.917969 L 179.214844 228.421875 L 170.59375 230.1875 L 169.949219 226.980469 L 179.335938 225.054688 Z M 178.414062 220.519531 " fill-opacity="1" fill-rule="nonzero"/><path fill="#ffffff" d="M 202.203125 227.097656 L 209.542969 228.984375 L 210.707031 224.53125 L 203.164062 222.566406 C 199.035156 221.484375 196.183594 223.046875 195.183594 226.9375 L 192.09375 238.8125 C 191.933594 239.375 192.011719 239.894531 192.253906 240.296875 C 192.496094 240.738281 192.9375 241.019531 193.496094 241.179688 L 196.304688 241.902344 L 198.269531 234.199219 L 206.773438 236.40625 L 207.9375 231.992188 L 199.433594 229.789062 L 199.753906 228.503906 C 200.195312 226.820312 200.679688 226.699219 202.203125 227.097656 Z M 202.203125 227.097656 " fill-opacity="1" fill-rule="nonzero"/><path fill="#ffffff" d="M 258.484375 325.300781 L 258.484375 331.355469 L 259.726562 331.355469 L 259.726562 325.300781 L 261.933594 325.300781 L 261.933594 324.175781 L 256.234375 324.175781 L 256.234375 325.300781 Z M 258.484375 325.300781 " fill-opacity="1" fill-rule="nonzero"/><path fill="#ffffff" d="M 268.589844 324.136719 L 266.386719 329.910156 L 264.179688 324.136719 L 262.816406 324.136719 L 262.816406 331.355469 L 264.097656 331.355469 L 264.097656 327.023438 L 265.742188 331.355469 L 266.988281 331.355469 L 268.632812 327.023438 L 268.632812 331.355469 L 269.914062 331.355469 L 269.914062 324.136719 Z M 268.589844 324.136719 " fill-opacity="1" fill-rule="nonzero"/></svg>