<svg xmlns="http://www.w3.org/2000/svg" xmlns:xlink="http://www.w3.org/1999/xlink" width="500" zoomAndPan="magnify" viewBox="0 0 375 374.999991" height="500" preserveAspectRatio="xMidYMid meet" version="1.0"><path fill="#ff6900" d="M 115.023438 109.316406 C 115.023438 85.730469 126.5625 64.796875 144.285156 51.820312 L 139.585938 35.820312 C 115.304688 51.308594 99.210938 78.429688 99.210938 109.316406 C 99.210938 142.019531 117.257812 170.488281 143.914062 185.371094 L 149.355469 170.207031 C 128.792969 157.742188 115.023438 135.085938 115.023438 109.316406 Z M 232.898438 35.863281 L 228.203125 51.867188 C 245.925781 64.84375 257.460938 85.777344 257.460938 109.363281 C 257.460938 135.132812 243.691406 157.742188 223.132812 170.253906 L 228.574219 185.417969 C 255.230469 170.535156 273.277344 142.066406 273.277344 109.363281 C 273.277344 78.429688 257.136719 51.308594 232.898438 35.863281 Z M 232.898438 35.863281 " fill-opacity="1" fill-rule="nonzero"/><path fill="#ffffff" d="M 170.3125 172.253906 L 159.335938 172.253906 L 176.265625 124.945312 L 144.402344 16.515625 L 183.105469 0 L 183.105469 114.898438 Z M 170.3125 172.253906 " fill-opacity="1" fill-rule="nonzero"/><path fill="#ffffff" d="M 195.199219 124.945312 L 212.132812 172.253906 L 201.152344 172.253906 L 188.363281 114.898438 L 188.363281 0 L 227.0625 16.515625 Z M 195.199219 124.945312 " fill-opacity="1" fill-rule="nonzero"/><path fill="#ffffff" d="M 150.683594 196.492188 L 156.496094 180.164062 L 215.015625 180.164062 L 220.832031 196.492188 Z M 150.683594 196.492188 " fill-opacity="1" fill-rule="nonzero"/><path fill="#ffffff" d="M 185.757812 126.109375 L 196.035156 172.253906 L 175.476562 172.253906 Z M 185.757812 126.109375 " fill-opacity="1" fill-rule="nonzero"/><path fill="#ffffff" d="M 64.855469 315.390625 L 85.277344 315.390625 L 85.277344 305.527344 L 64.855469 305.527344 L 64.855469 296.550781 L 87.046875 296.550781 L 87.046875 286.6875 L 53.878906 286.6875 L 53.878906 334.648438 L 87.558594 334.648438 L 87.558594 324.785156 L 64.855469 324.785156 Z M 64.855469 315.390625 " fill-opacity="1" fill-rule="nonzero"/><path fill="#ffffff" d="M 206.085938 335.71875 C 220.179688 335.71875 229.296875 326.179688 229.296875 310.644531 C 229.296875 295.109375 220.179688 285.570312 206.085938 285.570312 C 191.988281 285.570312 182.871094 295.109375 182.871094 310.644531 C 182.871094 326.179688 191.988281 335.71875 206.085938 335.71875 Z M 206.085938 295.480469 C 212.921875 295.480469 218.320312 300.410156 218.320312 310.691406 C 218.320312 320.972656 212.921875 325.902344 206.085938 325.902344 C 199.246094 325.902344 193.851562 320.972656 193.851562 310.691406 C 193.804688 300.410156 199.246094 295.480469 206.085938 295.480469 Z M 206.085938 295.480469 " fill-opacity="1" fill-rule="evenodd"/><path fill="#ffffff" d="M 235.855469 334.648438 L 246.789062 334.648438 L 246.789062 318.460938 L 254.601562 318.460938 C 264.046875 318.460938 271.8125 312.96875 271.8125 302.550781 C 271.8125 292.128906 264.09375 286.640625 254.601562 286.640625 L 235.855469 286.640625 Z M 246.742188 296.550781 L 254 296.550781 C 258.882812 296.550781 260.789062 299.0625 260.789062 302.597656 C 260.789062 306.085938 258.882812 308.644531 254 308.644531 L 246.742188 308.644531 Z M 246.742188 296.550781 " fill-opacity="1" fill-rule="evenodd"/><path fill="#ffffff" d="M 134.402344 286.6875 L 123.421875 286.6875 L 123.421875 315.203125 C 123.421875 321.621094 120.121094 325.625 114.121094 325.625 C 108.074219 325.625 104.816406 321.667969 104.816406 315.203125 L 104.816406 286.6875 L 93.835938 286.6875 L 93.835938 315.808594 C 93.835938 329.160156 103.09375 335.484375 114.121094 335.484375 C 125.144531 335.484375 134.402344 329.113281 134.402344 315.808594 Z M 134.402344 286.6875 " fill-opacity="1" fill-rule="nonzero"/><path fill="#ffffff" d="M 115.003906 345.953125 L 108.628906 345.953125 L 108.628906 374 L 128.308594 374 L 128.308594 368.234375 L 115.003906 368.234375 Z M 115.003906 345.953125 " fill-opacity="1" fill-rule="nonzero"/><path fill="#ffffff" d="M 259.394531 362.746094 L 259.394531 356.976562 L 247.484375 356.976562 L 247.484375 351.71875 L 260.464844 351.71875 L 260.464844 345.953125 L 241.066406 345.953125 L 241.066406 374 L 260.742188 374 L 260.742188 368.234375 L 247.4375 368.234375 L 247.4375 362.746094 Z M 259.394531 362.746094 " fill-opacity="1" fill-rule="nonzero"/><path fill="#ffffff" d="M 231.066406 362.605469 C 231.066406 366.371094 229.15625 368.699219 225.621094 368.699219 C 222.085938 368.699219 220.179688 366.371094 220.179688 362.605469 L 220.179688 345.953125 L 213.761719 345.953125 L 213.761719 362.976562 C 213.761719 370.792969 219.15625 374.464844 225.621094 374.464844 C 232.089844 374.464844 237.484375 370.746094 237.484375 362.976562 L 237.484375 345.953125 L 231.066406 345.953125 Z M 231.066406 362.605469 " fill-opacity="1" fill-rule="nonzero"/><path fill="#ffffff" d="M 204.828125 363.953125 L 204.828125 365.953125 C 203.433594 367.535156 201.199219 368.699219 198.410156 368.699219 C 193.570312 368.699219 189.898438 365.859375 189.898438 359.953125 C 189.898438 354.046875 193.851562 351.207031 197.664062 351.207031 C 201.152344 351.207031 203.386719 352.882812 204.316406 356 L 210.457031 354.183594 C 209.015625 348.929688 204.921875 345.394531 197.757812 345.394531 C 190.082031 345.394531 183.476562 350.929688 183.476562 359.90625 C 183.476562 368.886719 189.988281 374.421875 197.804688 374.421875 C 203.898438 374.421875 207.667969 372 210.738281 368.234375 L 210.738281 358.835938 L 196.128906 358.835938 L 196.128906 363.953125 Z M 204.828125 363.953125 " fill-opacity="1" fill-rule="nonzero"/><path fill="#ffffff" d="M 298.144531 286.6875 L 286.515625 286.6875 L 267.070312 334.648438 L 279.488281 334.648438 L 282.976562 325.53125 L 301.726562 325.53125 L 305.214844 334.648438 L 317.632812 334.648438 Z M 286.699219 315.667969 L 292.328125 300.921875 L 297.957031 315.667969 Z M 286.699219 315.667969 " fill-opacity="1" fill-rule="evenodd"/><path fill="#ffffff" d="M 165.382812 345.953125 L 153.984375 374 L 161.242188 374 L 163.289062 368.699219 L 174.265625 368.699219 L 176.3125 374 L 183.570312 374 L 172.21875 345.953125 Z M 165.476562 362.882812 L 168.777344 354.277344 L 172.082031 362.882812 Z M 165.476562 362.882812 " fill-opacity="1" fill-rule="evenodd"/><path fill="#ffffff" d="M 137.75 362.746094 L 149.707031 362.746094 L 149.707031 356.976562 L 137.75 356.976562 L 137.75 351.71875 L 150.730469 351.71875 L 150.730469 345.953125 L 131.332031 345.953125 L 131.332031 374 L 151.054688 374 L 151.054688 368.234375 L 137.75 368.234375 Z M 137.75 362.746094 " fill-opacity="1" fill-rule="nonzero"/><path fill="#ffffff" d="M 167.753906 334.648438 L 180.082031 334.648438 L 169.382812 315.390625 C 174.265625 312.644531 177.664062 308.320312 177.664062 302.039062 C 177.664062 292.640625 170.082031 286.6875 160.3125 286.6875 L 141.332031 286.6875 L 141.332031 334.648438 L 152.3125 334.648438 L 152.3125 317.390625 L 158.21875 317.390625 Z M 152.3125 296.550781 L 160.542969 296.550781 C 165.054688 296.550781 166.777344 298.875 166.777344 302.039062 C 166.777344 305.203125 165.054688 307.527344 160.542969 307.527344 L 152.3125 307.527344 Z M 152.3125 296.550781 " fill-opacity="1" fill-rule="evenodd"/><path fill="#ffffff" d="M 147.007812 257.289062 C 145.9375 258.171875 144.636719 258.589844 143.519531 258.453125 C 142.125 258.3125 141.238281 257.707031 139.84375 255.988281 L 131.703125 245.984375 L 127.332031 249.566406 L 136.167969 260.453125 C 138.03125 262.777344 140.214844 263.988281 142.726562 264.21875 C 143.007812 264.265625 143.332031 264.265625 143.613281 264.265625 C 146.078125 264.265625 148.355469 263.429688 150.542969 261.660156 C 153.007812 259.660156 154.355469 257.335938 154.683594 254.542969 C 154.960938 252.03125 154.21875 249.660156 152.3125 247.378906 L 143.472656 236.496094 L 139.097656 240.078125 L 147.238281 250.078125 C 148.636719 251.800781 149.054688 252.777344 148.914062 254.21875 C 148.773438 255.242188 148.078125 256.359375 147.007812 257.289062 Z M 147.007812 257.289062 " fill-opacity="1" fill-rule="nonzero"/><path fill="#ffffff" d="M 185.757812 259.429688 C 201.109375 259.429688 215.296875 266.546875 223.621094 276.917969 L 226.550781 273.335938 C 217.390625 262.359375 202.363281 254.964844 185.804688 254.964844 C 169.242188 254.964844 154.21875 262.359375 145.054688 273.335938 L 147.984375 276.917969 C 156.21875 266.546875 170.359375 259.429688 185.757812 259.429688 Z M 185.757812 259.429688 " fill-opacity="1" fill-rule="nonzero"/><path fill="#ffffff" d="M 127.5625 241.519531 C 143.519531 227.75 164.171875 220.167969 185.757812 220.167969 C 207.339844 220.167969 227.996094 227.75 243.949219 241.519531 C 245.625 242.960938 247.207031 244.449219 248.695312 245.984375 L 251.71875 242.265625 C 250.230469 240.777344 248.695312 239.332031 247.066406 237.9375 C 230.273438 223.425781 208.503906 215.46875 185.804688 215.46875 C 163.101562 215.46875 141.332031 223.46875 124.539062 237.9375 C 122.910156 239.332031 121.375 240.777344 119.886719 242.265625 L 122.910156 245.984375 C 124.308594 244.449219 125.933594 242.960938 127.5625 241.519531 Z M 127.5625 241.519531 " fill-opacity="1" fill-rule="nonzero"/><path fill="#ffffff" d="M 237.066406 245.566406 C 237.34375 244.777344 237.53125 243.566406 236.183594 242.496094 L 235.296875 241.84375 C 233.949219 240.820312 232.878906 241.242188 232.089844 241.753906 L 211.898438 254.824219 L 217.15625 257.800781 L 230.042969 249.472656 L 227.808594 256.964844 L 225.855469 255.476562 L 222.460938 257.894531 L 226.644531 261.011719 L 225.667969 264.359375 L 230.273438 268.59375 Z M 237.066406 245.566406 " fill-opacity="1" fill-rule="nonzero"/><path fill="#ffffff" d="M 176.964844 225.796875 L 162.777344 228.679688 C 162.125 228.820312 161.613281 229.144531 161.289062 229.609375 C 160.960938 230.078125 160.871094 230.679688 161.007812 231.332031 L 163.847656 245.289062 C 164.3125 247.566406 165.335938 249.195312 166.871094 250.125 C 167.894531 250.777344 169.101562 251.054688 170.546875 251.054688 C 171.242188 251.054688 172.035156 250.960938 172.824219 250.824219 L 181.710938 249.007812 L 180.640625 243.753906 L 172.035156 245.519531 C 170.265625 245.890625 169.707031 245.707031 169.289062 243.707031 L 168.964844 242.21875 L 178.964844 240.171875 L 177.894531 234.960938 L 167.894531 237.007812 L 167.148438 233.285156 L 178.035156 231.054688 Z M 176.964844 225.796875 " fill-opacity="1" fill-rule="nonzero"/><path fill="#ffffff" d="M 204.550781 233.425781 L 213.0625 235.613281 L 214.410156 230.449219 L 205.667969 228.167969 C 200.875 226.914062 197.574219 228.726562 196.410156 233.238281 L 192.828125 247.007812 C 192.640625 247.660156 192.734375 248.265625 193.011719 248.730469 C 193.292969 249.242188 193.804688 249.566406 194.457031 249.753906 L 197.710938 250.589844 L 199.992188 241.660156 L 209.851562 244.21875 L 211.203125 239.101562 L 201.339844 236.542969 L 201.710938 235.054688 C 202.222656 233.101562 202.78125 232.960938 204.550781 233.425781 Z M 204.550781 233.425781 " fill-opacity="1" fill-rule="nonzero"/><path fill="#ffffff" d="M 269.8125 347.300781 L 269.8125 354.324219 L 271.257812 354.324219 L 271.257812 347.300781 L 273.816406 347.300781 L 273.816406 346 L 267.207031 346 L 267.207031 347.300781 Z M 269.8125 347.300781 " fill-opacity="1" fill-rule="nonzero"/><path fill="#ffffff" d="M 281.535156 345.953125 L 278.976562 352.648438 L 276.417969 345.953125 L 274.835938 345.953125 L 274.835938 354.324219 L 276.328125 354.324219 L 276.328125 349.300781 L 278.234375 354.324219 L 279.675781 354.324219 L 281.582031 349.300781 L 281.582031 354.324219 L 283.070312 354.324219 L 283.070312 345.953125 Z M 281.535156 345.953125 " fill-opacity="1" fill-rule="nonzero"/></svg>