<svg xmlns="http://www.w3.org/2000/svg" xmlns:xlink="http://www.w3.org/1999/xlink" width="500" zoomAndPan="magnify" viewBox="0 0 375 374.999991" height="500" preserveAspectRatio="xMidYMid meet" version="1.0"><defs><clipPath id="d32ae70479"><path d="M 19.191406 9.636719 L 355.941406 9.636719 L 355.941406 365.136719 L 19.191406 365.136719 Z M 19.191406 9.636719 " clip-rule="nonzero"/></clipPath></defs><g clip-path="url(#d32ae70479)"><path fill="#ffffff" d="M 135.011719 9.640625 L 195.960938 9.640625 C 169.097656 47.121094 142.1875 84.570312 115.320312 122.042969 C 132.871094 122.046875 150.417969 122.039062 167.96875 122.050781 C 141.238281 135.503906 114.503906 148.957031 87.769531 162.402344 C 85.957031 159.535156 83.722656 156.964844 81.730469 154.226562 C 77.632812 148.832031 73.53125 143.441406 69.433594 138.042969 C 65.425781 132.726562 63.21875 126.085938 63.238281 119.425781 C 63.214844 112.917969 65.316406 106.425781 69.148438 101.164062 C 91.109375 70.660156 113.035156 40.132812 135.011719 9.640625 Z M 248.863281 9.640625 L 315.0625 9.640625 C 271.296875 71.984375 227.507812 134.3125 183.738281 196.648438 C 204.265625 196.65625 224.800781 196.644531 245.328125 196.65625 C 214.011719 212.441406 182.691406 228.203125 151.363281 243.945312 C 144.542969 234.882812 137.582031 225.925781 130.703125 216.90625 C 129.097656 214.894531 127.675781 212.734375 126.589844 210.402344 C 122.964844 202.75 122.828125 193.578125 126.125 185.792969 C 127.929688 181.3125 131.105469 177.617188 133.765625 173.644531 C 172.136719 118.980469 210.464844 64.285156 248.863281 9.640625 Z M 19.191406 284.890625 C 24.722656 284.863281 30.257812 284.890625 35.789062 284.878906 C 35.800781 306.113281 35.789062 327.34375 35.796875 348.578125 C 45.699219 348.585938 55.601562 348.582031 65.5 348.582031 C 65.507812 353.9375 65.503906 359.296875 65.5 364.652344 C 53.175781 364.652344 40.851562 364.664062 28.527344 364.652344 C 26.046875 361.824219 23.546875 359.019531 21.0625 356.195312 C 19.960938 354.957031 19.414062 353.328125 19.191406 351.710938 Z M 74.46875 356.546875 C 80.554688 332.65625 86.589844 308.75 92.75 284.878906 C 99.167969 284.882812 105.585938 284.878906 112.007812 284.878906 C 114.691406 284.835938 117.324219 286.375 118.609375 288.734375 C 119.191406 289.746094 119.394531 290.90625 119.6875 292.023438 C 125.175781 313.785156 130.933594 335.480469 136.519531 357.222656 C 136.644531 359.691406 136.539062 362.175781 136.570312 364.652344 C 131.957031 364.652344 127.34375 364.65625 122.730469 364.652344 C 120.675781 356.699219 118.628906 348.738281 116.570312 340.785156 C 108.355469 344.71875 100.132812 348.636719 91.925781 352.597656 C 90.890625 356.617188 89.835938 360.632812 88.789062 364.652344 C 83.851562 364.652344 78.914062 364.660156 73.980469 364.652344 C 74.058594 361.949219 73.71875 359.1875 74.46875 356.546875 Z M 95.898438 337.066406 C 102.472656 337.070312 109.046875 337.066406 115.617188 337.070312 C 112.347656 324.246094 109.054688 311.425781 105.765625 298.601562 C 102.449219 311.417969 99.179688 324.246094 95.898438 337.066406 Z M 145.304688 284.882812 C 150.828125 284.875 156.355469 284.878906 161.882812 284.878906 C 161.886719 306.113281 161.882812 327.34375 161.882812 348.578125 C 171.785156 348.585938 181.6875 348.578125 191.59375 348.582031 C 191.59375 353.9375 191.589844 359.296875 191.59375 364.652344 C 179.265625 364.65625 166.9375 364.660156 154.609375 364.652344 C 152.28125 362.011719 149.957031 359.378906 147.625 356.746094 C 146.152344 355.261719 145.277344 353.207031 145.304688 351.113281 C 145.308594 329.039062 145.304688 306.957031 145.304688 284.882812 Z M 200.878906 284.882812 C 206.410156 284.890625 211.941406 284.859375 217.46875 284.898438 C 217.445312 311.484375 217.46875 338.070312 217.457031 364.65625 C 211.933594 364.652344 206.410156 364.652344 200.886719 364.65625 C 200.875 338.066406 200.882812 311.472656 200.878906 284.882812 Z M 248.488281 285.800781 C 252.835938 284.636719 257.378906 285.144531 261.820312 285.03125 C 267.757812 284.902344 273.710938 286.921875 278.320312 290.675781 C 283.542969 294.859375 287.011719 301.164062 287.707031 307.824219 C 282.3125 307.828125 276.921875 307.828125 271.53125 307.828125 C 271.511719 306.425781 271.671875 304.953125 271.070312 303.644531 C 270.257812 301.664062 268.203125 300.300781 266.066406 300.289062 C 261.515625 300.269531 256.96875 300.289062 252.417969 300.28125 C 251.289062 300.253906 250.109375 300.28125 249.074219 300.785156 C 247.085938 301.648438 245.769531 303.773438 245.816406 305.933594 C 245.824219 318.769531 245.808594 331.609375 245.824219 344.445312 C 245.84375 347.285156 248.355469 349.800781 251.199219 349.816406 C 256.152344 349.824219 261.105469 349.820312 266.058594 349.816406 C 268.203125 349.816406 270.265625 348.4375 271.078125 346.453125 C 271.664062 345.164062 271.515625 343.710938 271.53125 342.339844 C 271.53125 339.527344 271.53125 336.71875 271.527344 333.910156 C 266.875 333.90625 262.214844 333.910156 257.554688 333.90625 C 257.554688 328.644531 257.554688 323.382812 257.554688 318.117188 C 263.953125 318.109375 270.34375 318.121094 276.738281 318.109375 C 279.175781 320.695312 281.566406 323.324219 283.988281 325.925781 C 285.675781 327.707031 286.855469 329.960938 287.425781 332.347656 C 288.023438 334.722656 287.785156 337.1875 287.832031 339.613281 C 287.886719 345.214844 286.050781 350.820312 282.648438 355.277344 C 279.121094 359.953125 273.933594 363.347656 268.226562 364.671875 C 265.53125 365.34375 262.75 365.390625 259.992188 365.347656 C 256.445312 365.292969 252.847656 365.589844 249.359375 364.789062 C 244.929688 363.785156 240.734375 361.65625 237.40625 358.550781 C 232.640625 354.152344 229.65625 347.886719 229.277344 341.40625 C 229.167969 338.691406 229.25 335.972656 229.222656 333.253906 C 229.234375 325.265625 229.199219 317.277344 229.242188 309.289062 C 229.597656 302.5 232.75 295.894531 237.875 291.414062 C 240.898438 288.730469 244.589844 286.847656 248.488281 285.800781 Z M 294.140625 354.609375 C 300.113281 331.367188 306.078125 308.121094 312.050781 284.878906 L 331.28125 284.878906 C 333.820312 284.828125 336.316406 286.179688 337.675781 288.320312 C 338.535156 289.601562 338.757812 291.15625 339.152344 292.613281 C 344.429688 313.554688 349.878906 334.453125 355.222656 355.375 C 355.421875 356.28125 355.832031 357.152344 355.792969 358.097656 C 355.777344 360.28125 355.792969 362.46875 355.785156 364.652344 C 351.15625 364.652344 346.527344 364.65625 341.898438 364.652344 C 339.847656 356.695312 337.792969 348.738281 335.746094 340.78125 C 327.53125 344.707031 319.324219 348.648438 311.117188 352.570312 C 310.054688 356.597656 309.011719 360.625 307.957031 364.652344 C 303.023438 364.660156 298.089844 364.652344 293.15625 364.652344 C 293.160156 362.96875 293.132812 361.285156 293.167969 359.601562 C 293.203125 357.890625 293.726562 356.25 294.140625 354.609375 Z M 315.050781 337.066406 C 321.628906 337.074219 328.203125 337.070312 334.78125 337.066406 C 331.492188 324.25 328.226562 311.425781 324.914062 298.613281 C 321.601562 311.421875 318.339844 324.25 315.050781 337.066406 Z M 315.050781 337.066406 " fill-opacity="1" fill-rule="nonzero"/></g></svg>