<svg xmlns="http://www.w3.org/2000/svg" xmlns:xlink="http://www.w3.org/1999/xlink" width="500" zoomAndPan="magnify" viewBox="0 0 375 374.999991" height="500" preserveAspectRatio="xMidYMid meet" version="1.0"><defs><clipPath id="7fd7f412b7"><path d="M 53.46875 45.859375 L 321.21875 45.859375 L 321.21875 329.359375 L 53.46875 329.359375 Z M 53.46875 45.859375 " clip-rule="nonzero"/></clipPath></defs><g clip-path="url(#7fd7f412b7)"><path fill="#ffffff" d="M 145.699219 45.863281 L 194.234375 45.863281 C 172.84375 75.710938 151.414062 105.53125 130.019531 135.375 C 143.992188 135.375 157.96875 135.371094 171.945312 135.378906 C 150.65625 146.09375 129.371094 156.804688 108.078125 167.511719 C 106.636719 165.230469 104.855469 163.183594 103.269531 161.003906 C 100.007812 156.707031 96.742188 152.414062 93.480469 148.117188 C 90.285156 143.882812 88.527344 138.59375 88.542969 133.289062 C 88.527344 128.105469 90.199219 122.9375 93.253906 118.746094 C 110.738281 94.453125 128.199219 70.144531 145.699219 45.863281 Z M 236.363281 45.863281 L 289.082031 45.863281 C 254.230469 95.507812 219.359375 145.144531 184.503906 194.785156 C 200.851562 194.789062 217.203125 194.78125 233.550781 194.789062 C 208.609375 207.359375 183.667969 219.914062 158.722656 232.449219 C 153.289062 225.234375 147.746094 218.097656 142.269531 210.917969 C 140.992188 209.316406 139.855469 207.59375 138.996094 205.734375 C 136.105469 199.640625 135.996094 192.339844 138.621094 186.140625 C 140.058594 182.574219 142.589844 179.628906 144.707031 176.464844 C 175.265625 132.933594 205.789062 89.378906 236.363281 45.863281 Z M 53.46875 265.054688 C 57.871094 265.03125 62.28125 265.054688 66.6875 265.046875 C 66.695312 281.953125 66.6875 298.863281 66.691406 315.769531 C 74.574219 315.777344 82.460938 315.773438 90.347656 315.773438 C 90.351562 320.042969 90.347656 324.304688 90.347656 328.574219 C 80.53125 328.570312 70.714844 328.582031 60.902344 328.570312 C 58.925781 326.320312 56.9375 324.085938 54.957031 321.839844 C 54.082031 320.851562 53.644531 319.554688 53.46875 318.265625 Z M 97.488281 322.117188 C 102.332031 303.09375 107.140625 284.054688 112.042969 265.046875 C 117.15625 265.050781 122.265625 265.046875 127.378906 265.046875 C 129.519531 265.011719 131.613281 266.238281 132.636719 268.117188 C 133.101562 268.921875 133.261719 269.84375 133.496094 270.734375 C 137.867188 288.066406 142.453125 305.34375 146.902344 322.65625 C 147 324.621094 146.917969 326.601562 146.941406 328.574219 C 143.265625 328.574219 139.59375 328.578125 135.921875 328.574219 C 134.28125 322.238281 132.65625 315.898438 131.015625 309.566406 C 124.472656 312.699219 117.925781 315.820312 111.390625 318.972656 C 110.566406 322.175781 109.722656 325.371094 108.890625 328.574219 C 104.960938 328.574219 101.027344 328.578125 97.097656 328.570312 C 97.164062 326.417969 96.890625 324.21875 97.488281 322.117188 Z M 114.554688 306.605469 C 119.789062 306.609375 125.023438 306.605469 130.257812 306.609375 C 127.652344 296.394531 125.03125 286.1875 122.410156 275.976562 C 119.769531 286.179688 117.164062 296.394531 114.554688 306.605469 Z M 153.894531 265.050781 C 158.296875 265.042969 162.695312 265.046875 167.097656 265.046875 C 167.101562 281.953125 167.097656 298.863281 167.097656 315.769531 C 174.984375 315.777344 182.871094 315.769531 190.757812 315.777344 C 190.757812 320.042969 190.753906 324.304688 190.757812 328.570312 C 180.941406 328.578125 171.121094 328.578125 161.304688 328.570312 C 159.453125 326.46875 157.601562 324.371094 155.742188 322.273438 C 154.570312 321.09375 153.875 319.460938 153.894531 317.789062 C 153.898438 300.210938 153.894531 282.628906 153.894531 265.050781 Z M 198.152344 265.050781 C 202.558594 265.054688 206.960938 265.03125 211.363281 265.0625 C 211.34375 286.230469 211.363281 307.402344 211.355469 328.578125 C 206.957031 328.574219 202.554688 328.574219 198.15625 328.578125 C 198.152344 307.402344 198.15625 286.226562 198.152344 265.050781 Z M 236.066406 265.78125 C 239.527344 264.851562 243.144531 265.257812 246.683594 265.167969 C 251.410156 265.066406 256.152344 266.671875 259.820312 269.660156 C 263.980469 272.996094 266.742188 278.011719 267.296875 283.320312 C 263 283.320312 258.710938 283.320312 254.414062 283.320312 C 254.402344 282.203125 254.527344 281.03125 254.046875 279.988281 C 253.402344 278.410156 251.765625 277.328125 250.0625 277.316406 C 246.441406 277.304688 242.820312 277.316406 239.195312 277.308594 C 238.292969 277.289062 237.359375 277.308594 236.53125 277.714844 C 234.949219 278.398438 233.898438 280.09375 233.9375 281.8125 C 233.941406 292.035156 233.929688 302.257812 233.945312 312.480469 C 233.960938 314.742188 235.960938 316.746094 238.226562 316.757812 C 242.167969 316.765625 246.113281 316.761719 250.058594 316.757812 C 251.765625 316.757812 253.40625 315.660156 254.054688 314.082031 C 254.523438 313.050781 254.402344 311.898438 254.414062 310.804688 C 254.414062 308.566406 254.414062 306.328125 254.414062 304.09375 C 250.707031 304.089844 246.996094 304.09375 243.285156 304.089844 C 243.285156 299.898438 243.285156 295.707031 243.285156 291.515625 C 248.378906 291.507812 253.472656 291.519531 258.5625 291.507812 C 260.503906 293.570312 262.40625 295.660156 264.335938 297.734375 C 265.679688 299.152344 266.621094 300.945312 267.074219 302.847656 C 267.550781 304.738281 267.359375 306.703125 267.398438 308.632812 C 267.441406 313.09375 265.980469 317.558594 263.269531 321.105469 C 260.460938 324.832031 256.328125 327.53125 251.785156 328.589844 C 249.640625 329.121094 247.421875 329.160156 245.226562 329.128906 C 242.402344 329.082031 239.535156 329.320312 236.757812 328.683594 C 233.234375 327.878906 229.890625 326.1875 227.242188 323.710938 C 223.445312 320.210938 221.066406 315.21875 220.769531 310.0625 C 220.679688 307.898438 220.746094 305.734375 220.726562 303.570312 C 220.734375 297.207031 220.707031 290.84375 220.738281 284.484375 C 221.023438 279.078125 223.53125 273.816406 227.613281 270.25 C 230.019531 268.113281 232.960938 266.613281 236.066406 265.78125 Z M 272.421875 320.574219 C 277.175781 302.066406 281.925781 283.554688 286.683594 265.046875 L 301.996094 265.046875 C 304.019531 265.003906 306.007812 266.082031 307.089844 267.789062 C 307.773438 268.808594 307.949219 270.042969 308.261719 271.203125 C 312.46875 287.882812 316.804688 304.523438 321.0625 321.1875 C 321.21875 321.90625 321.550781 322.597656 321.515625 323.351562 C 321.503906 325.089844 321.515625 326.832031 321.511719 328.574219 C 317.824219 328.574219 314.136719 328.578125 310.453125 328.574219 C 308.820312 322.238281 307.183594 315.898438 305.550781 309.566406 C 299.011719 312.691406 292.476562 315.828125 285.9375 318.953125 C 285.09375 322.15625 284.261719 325.363281 283.425781 328.570312 C 279.496094 328.578125 275.566406 328.574219 271.636719 328.574219 C 271.636719 327.230469 271.617188 325.890625 271.644531 324.550781 C 271.675781 323.1875 272.09375 321.882812 272.421875 320.574219 Z M 289.074219 306.605469 C 294.308594 306.609375 299.542969 306.609375 304.785156 306.605469 C 302.164062 296.398438 299.5625 286.1875 296.925781 275.980469 C 294.289062 286.183594 291.691406 296.398438 289.074219 306.605469 Z M 289.074219 306.605469 " fill-opacity="1" fill-rule="nonzero"/></g></svg>