<svg xmlns="http://www.w3.org/2000/svg" xmlns:xlink="http://www.w3.org/1999/xlink" width="500" zoomAndPan="magnify" viewBox="0 0 375 374.999991" height="500" preserveAspectRatio="xMidYMid meet" version="1.0"><defs><clipPath id="27e4c1cd48"><path d="M 43.773438 5.804688 L 331.023438 5.804688 L 331.023438 369.554688 L 43.773438 369.554688 Z M 43.773438 5.804688 " clip-rule="nonzero"/></clipPath></defs><g clip-path="url(#27e4c1cd48)"><path fill="#ffffff" d="M 84.410156 353.554688 L 59.558594 353.554688 L 59.558594 270.164062 L 43.773438 270.164062 L 43.773438 367.769531 L 80.488281 367.769531 Z M 90.789062 270.164062 L 90.789062 367.769531 L 106.683594 367.769531 L 106.683594 270.164062 Z M 145.300781 313.148438 L 141.378906 326.019531 L 156.378906 326.019531 C 156.269531 344.152344 155.261719 349.523438 153.578125 352.101562 C 152.125 354.226562 149.886719 355.121094 146.640625 355.121094 L 142.722656 355.121094 C 139.363281 355.121094 137.125 354.226562 135.671875 352.101562 C 133.878906 349.300781 132.984375 343.144531 132.984375 321.097656 L 132.984375 316.84375 C 132.984375 294.789062 133.878906 288.523438 135.671875 285.835938 C 137.125 283.710938 139.363281 282.816406 142.722656 282.816406 L 146.640625 282.816406 C 151.675781 282.816406 154.253906 285.726562 154.253906 295.578125 C 154.253906 298.152344 154.253906 300.5 154.140625 302.742188 L 169.253906 294.34375 C 169.363281 292.554688 169.363281 291.324219 169.363281 289.757812 C 169.363281 277.777344 161.640625 268.824219 147.089844 268.824219 L 142.164062 268.824219 C 135.113281 268.824219 128.285156 271.734375 124.03125 276.882812 C 118.992188 283.039062 117.203125 293.113281 117.203125 312.8125 L 117.203125 325.125 C 117.203125 344.9375 118.992188 354.902344 124.03125 361.058594 C 128.285156 366.203125 135.113281 369.117188 142.164062 369.117188 L 147.089844 369.117188 C 154.136719 369.117188 160.96875 366.203125 165.222656 361.058594 C 170.035156 355.125 171.265625 344.9375 171.265625 325.125 L 171.265625 313.148438 L 145.296875 313.148438 Z M 217.496094 352.769531 L 217.496094 351.429688 C 214.8125 353.445312 210.78125 354.671875 206.304688 354.671875 L 204.960938 354.671875 C 199.363281 354.671875 197.011719 352.210938 197.011719 346.726562 L 197.011719 270.164062 L 181.230469 270.164062 L 181.230469 348.070312 C 181.230469 363.183594 188.730469 369.117188 199.027344 369.117188 L 200.371094 369.117188 C 203.617188 369.117188 206.417969 368.554688 209.550781 367.773438 L 217.496094 352.773438 Z M 217.496094 270.164062 L 217.496094 367.769531 L 233.28125 367.769531 L 233.28125 270.164062 Z M 260.929688 353.894531 L 260.929688 323.558594 L 276.824219 323.558594 L 280.851562 309.679688 L 260.929688 309.679688 L 260.929688 284.15625 L 286.113281 284.15625 L 282.085938 270.164062 L 245.144531 270.164062 L 245.144531 367.769531 L 283.429688 367.769531 L 287.347656 353.890625 L 260.929688 353.890625 Z M 304.472656 278 L 301.671875 289.082031 L 315.441406 289.082031 L 315.441406 367.773438 L 331.222656 367.773438 L 331.222656 268.597656 Z M 213.242188 55.585938 L 239.4375 48.871094 L 199.363281 194.832031 L 230.035156 194.832031 L 282.421875 5.882812 L 159.738281 39.128906 L 148.769531 69.914062 L 178.320312 69.914062 L 127.277344 248.789062 L 227.792969 248.789062 L 235.851562 219.796875 L 166.675781 219.796875 Z M 213.242188 55.585938 " fill-opacity="1" fill-rule="nonzero"/></g></svg>