<svg xmlns="http://www.w3.org/2000/svg" xmlns:xlink="http://www.w3.org/1999/xlink" width="500" zoomAndPan="magnify" viewBox="0 0 375 374.999991" height="500" preserveAspectRatio="xMidYMid meet" version="1.0"><defs><clipPath id="b47b2d78e8"><path d="M 0 0 L 375 0 L 375 374.898438 L 0 374.898438 Z M 0 0 " clip-rule="nonzero"/></clipPath></defs><g clip-path="url(#b47b2d78e8)"><path fill="#000000" d="M 187.4375 -0.101562 C 290.613281 -0.101562 374.84375 84.128906 374.84375 187.585938 C 375.125 291.3125 290.613281 374.992188 186.339844 374.992188 C 83.996094 374.992188 0.03125 290.480469 0.03125 187.304688 C 0.03125 84.128906 83.996094 0.183594 187.4375 -0.101562 Z M 102.113281 23.777344 C 100.46875 24.605469 99.375 24.871094 98.542969 25.417969 C 81.804688 35.847656 66.714844 48.199219 54.09375 63.292969 C 31.03125 90.457031 17.601562 122 14.578125 157.664062 C 12.386719 182.355469 12.648438 207.324219 19.242188 231.464844 C 48.882812 341.761719 172.34375 394.183594 272.234375 339.023438 C 273.328125 338.476562 274.160156 337.929688 275.804688 337.097656 C 274.707031 342.3125 273.613281 346.691406 272.519531 351.644531 C 274.445312 350.8125 275.257812 350.546875 276.351562 350 C 305.441406 331.882812 328.488281 308.027344 343.582031 277.007812 C 363.601562 235.847656 366.363281 192.496094 357.03125 148.859375 C 332.605469 36.089844 205.574219 -20.996094 104.324219 34.445312 C 102.945312 35.277344 101.300781 36.089844 99.109375 37.183594 C 100.1875 32.277344 101.015625 28.441406 102.113281 23.777344 Z M 102.113281 23.777344 " fill-opacity="1" fill-rule="nonzero"/></g><path fill="#ffffff" d="M 102.375 23.777344 C 101.28125 28.441406 100.449219 32.277344 99.355469 37.226562 C 101.546875 36.128906 103.1875 35.296875 104.566406 34.488281 C 205.816406 -20.933594 332.585938 36.414062 357.273438 148.902344 C 366.871094 192.800781 363.867188 236.152344 343.824219 277.050781 C 328.730469 308.046875 305.6875 331.660156 276.59375 350.039062 C 275.765625 350.585938 274.667969 350.871094 272.761719 351.683594 C 273.855469 346.46875 274.953125 342.351562 276.046875 337.136719 C 274.40625 337.96875 273.308594 338.515625 272.476562 339.066406 C 172.609375 394.222656 49.125 341.804688 19.488281 231.507812 C 12.894531 207.082031 12.628906 182.394531 14.820312 157.707031 C 17.84375 122.042969 31.007812 90.476562 54.339844 63.3125 C 66.957031 48.21875 82.050781 35.867188 98.785156 25.4375 C 99.636719 24.871094 100.734375 24.585938 102.375 23.777344 Z M 102.375 23.777344 " fill-opacity="1" fill-rule="nonzero"/><path fill="#000000" d="M 225.859375 289.101562 C 224.480469 284.433594 223.382812 280.601562 222.574219 277.292969 C 213.242188 281.128906 204.742188 285.53125 195.671875 288.269531 C 179.199219 293.199219 163.011719 292.101562 147.371094 284.980469 C 144.085938 283.601562 143.253906 281.695312 143.800781 278.125 C 147.085938 262.199219 148.46875 246.578125 144.347656 230.65625 C 144.066406 229.824219 143.800781 228.726562 143.515625 227.917969 C 143.515625 227.632812 142.96875 227.367188 142.421875 226.273438 C 134.1875 238.34375 125.402344 249.601562 113.617188 258.933594 C 104.285156 238.628906 104.285156 217.773438 107.023438 195.824219 C 101.261719 197.46875 96.046875 199.109375 90.003906 200.753906 C 92.191406 181.542969 99.332031 165.355469 110.574219 149.996094 C 107.003906 149.164062 103.980469 148.617188 100.429688 148.070312 C 107.570312 133.523438 117.449219 121.738281 130.878906 111.574219 C 128.6875 122 129.234375 130.785156 138.285156 137.09375 C 137.453125 134.070312 136.640625 131.050781 136.09375 127.761719 C 135.808594 125.289062 135.808594 122.832031 136.09375 120.621094 C 137.734375 111.839844 144.042969 108.269531 152.566406 110.742188 C 154.207031 111.289062 155.851562 111.839844 158.0625 112.933594 C 155.585938 106.886719 151.46875 104.433594 146.539062 102.222656 C 146.539062 101.675781 146.539062 101.390625 146.257812 100.84375 C 154.207031 98.367188 161.898438 95.34375 170.132812 93.4375 C 177.273438 91.796875 184.941406 91.796875 192.367188 90.964844 C 199.507812 90.132812 204.984375 92.890625 209.652344 98.105469 C 211.292969 99.746094 212.9375 101.390625 214.863281 103.035156 C 215.148438 102.75 215.695312 102.75 215.960938 102.488281 C 215.410156 99.746094 214.863281 97.273438 214.316406 94.25 C 215.148438 94.25 215.960938 94.25 216.792969 94.535156 C 225.292969 97.007812 233.527344 100.296875 240.382812 106.058594 C 241.480469 106.886719 243.125 107.984375 243.40625 109.34375 C 245.050781 114.839844 246.429688 120.601562 248.074219 125.816406 C 240.121094 120.316406 231.882812 114.558594 223.101562 108.53125 C 221.722656 112.648438 220.910156 115.671875 219.8125 118.957031 C 213.503906 115.125 208.007812 111.554688 202.246094 108.53125 C 200.054688 107.4375 197.03125 106.886719 194.558594 107.4375 C 184.960938 109.078125 175.894531 112.648438 167.65625 119.507812 C 169.039062 120.601562 170.398438 121.433594 172.585938 123.078125 C 166.542969 126.101562 161.328125 128.839844 157.230469 134.882812 C 164.371094 133.789062 165.183594 138.453125 167.375 142.570312 C 170.945312 149.710938 177.253906 153.285156 185.207031 153.546875 C 194.800781 153.832031 204.417969 153.546875 214.296875 153.546875 C 211.558594 150.523438 208.25 147.5 205.25 144.214844 C 201.960938 140.382812 197.84375 139 192.894531 139.550781 C 186.039062 140.097656 179.445312 138.453125 173.96875 134.050781 C 181.65625 125.003906 188.777344 124.71875 204.152344 132.957031 C 206.628906 131.578125 209.082031 130.480469 211.558594 129.121094 C 211.839844 129.953125 212.105469 130.21875 212.105469 130.21875 C 208.820312 137.074219 208.820312 137.074219 214.296875 142.570312 C 217.582031 145.859375 220.605469 149.429688 223.628906 152.714844 C 227.746094 151.882812 231.863281 150.789062 235.980469 150.789062 C 240.101562 150.503906 244.21875 151.335938 248.882812 151.621094 C 242.839844 145.027344 236.8125 139 230.769531 132.691406 C 231.050781 132.144531 231.601562 131.597656 231.863281 131.050781 C 234.054688 132.429688 236.246094 133.523438 238.722656 134.882812 C 241.460938 134.335938 243.101562 128.839844 246.957031 132.691406 C 249.695312 135.429688 249.433594 138.191406 246.671875 141.742188 C 248.863281 144.214844 251.339844 146.40625 253.8125 149.429688 C 254.363281 147.5 254.644531 146.691406 255.195312 145.59375 L 256.023438 145.59375 C 275.785156 173.589844 281.546875 203.777344 270.285156 237.511719 C 267.546875 234.488281 265.074219 232.015625 262.050781 229.011719 C 260.121094 241.914062 256.835938 253.152344 250.527344 263.316406 C 244.523438 273.742188 236.285156 282.242188 225.859375 289.101562 Z M 195.390625 176.328125 C 198.675781 182.636719 201.980469 188.398438 204.722656 194.160156 C 206.101562 197.183594 208.007812 197.730469 210.765625 196.898438 C 220.363281 194.425781 227.785156 188.398438 235.453125 182.355469 C 235.738281 182.070312 236.285156 181.523438 236.285156 180.972656 C 236.285156 176.855469 236.835938 172.738281 236.003906 168.902344 C 235.71875 167.261719 232.167969 166.429688 230.242188 165.070312 C 228.863281 164.238281 227.765625 163.140625 226.40625 162.878906 C 224.480469 162.332031 222.289062 161.5 220.363281 162.046875 C 211.03125 164.804688 203.363281 170.304688 195.390625 176.328125 Z M 212.695312 209.253906 C 213.789062 211.726562 215.714844 214.75 217.074219 218.039062 C 218.171875 220.511719 219.550781 221.058594 221.742188 219.964844 C 225.859375 217.773438 229.976562 215.847656 234.644531 213.65625 L 236.285156 226.820312 C 236.835938 226.820312 237.382812 226.820312 237.667969 226.539062 C 243.976562 221.609375 248.09375 215.015625 248.640625 207.324219 C 248.925781 203.753906 246.449219 198.542969 243.425781 196.613281 C 240.953125 194.972656 235.476562 195.78125 232.453125 197.445312 C 225.859375 200.207031 219.550781 204.871094 212.695312 209.253906 Z M 253.570312 162.066406 C 250.546875 163.996094 248.355469 165.636719 245.882812 167.28125 C 245.050781 167.828125 244.238281 168.925781 244.238281 169.753906 C 241.765625 180.46875 248.074219 187.324219 254.664062 194.726562 C 259.066406 183.734375 257.6875 173.042969 253.570312 162.066406 Z M 253.570312 162.066406 " fill-opacity="1" fill-rule="nonzero"/><path fill="#000000" d="M 209.125 53.414062 C 209.671875 61.648438 210.21875 68.769531 211.050781 76.742188 C 215.714844 71.53125 219.550781 67.410156 223.667969 63.03125 L 224.5 63.859375 C 222.855469 71.8125 220.929688 80.050781 219.003906 88.285156 C 191.554688 81.429688 165.222656 84.453125 139.988281 97.882812 C 136.417969 89.929688 132.582031 82.523438 128.464844 73.457031 C 134.226562 77.027344 139.175781 80.3125 144.9375 83.882812 C 143.84375 76.195312 142.746094 69.074219 141.367188 61.101562 C 150.152344 67.148438 157.839844 72.359375 166.054688 78.121094 C 168.792969 69.886719 171.554688 62.199219 174.554688 53.433594 C 179.484375 61.121094 183.886719 67.980469 188.554688 75.667969 C 195.671875 68.222656 201.980469 61.367188 209.125 53.414062 Z M 39.8125 238.34375 C 39.265625 236.699219 38.71875 235.605469 38.171875 234.226562 C 43.382812 232.035156 48.3125 230.109375 53.8125 227.917969 C 55.453125 232.296875 57.097656 236.699219 59.023438 241.628906 C 59.855469 243.273438 61.5 245.464844 61.761719 247.9375 C 62.046875 251.507812 58.742188 252.605469 56.003906 253.699219 C 53.261719 254.796875 50.789062 255.890625 47.765625 256.988281 C 47.21875 255.605469 46.671875 254.511719 45.839844 252.867188 C 48.863281 251.488281 51.882812 250.679688 54.621094 249.035156 C 55.71875 248.488281 56.265625 246.558594 56.8125 245.464844 C 55.433594 244.917969 53.789062 243.820312 52.433594 244.085938 C 49.691406 244.632812 46.933594 246.011719 43.648438 247.371094 C 43.101562 246.277344 42.550781 244.894531 41.71875 243.535156 C 44.742188 242.15625 47.765625 241.347656 50.21875 239.703125 C 51.316406 238.871094 51.863281 237.226562 52.410156 235.867188 C 51.03125 235.585938 49.390625 234.488281 48.03125 234.773438 C 45.859375 235.867188 43.121094 237.25 39.8125 238.34375 Z M 98.804688 282.242188 C 100.1875 283.339844 101.28125 284.171875 102.640625 285.265625 C 98.257812 290.761719 94.140625 295.976562 89.472656 301.738281 C 92.214844 303.929688 94.6875 306.121094 97.710938 308.59375 C 96.878906 309.691406 96.066406 310.785156 94.972656 312.164062 L 82.617188 302.285156 C 88.117188 295.691406 93.328125 289.101562 98.804688 282.242188 Z M 172.082031 324.785156 C 175.367188 324.234375 176.746094 325.332031 175.914062 328.355469 L 175.082031 334.117188 C 174.25 339.046875 170.699219 342.066406 166.035156 341.257812 C 161.105469 340.707031 158.347656 337.421875 158.628906 332.207031 C 158.914062 329.1875 159.460938 326.164062 159.726562 322.613281 C 161.371094 322.898438 162.464844 323.160156 164.109375 323.445312 C 163.558594 326.46875 163.011719 329.488281 163.011719 332.230469 C 163.011719 333.871094 164.390625 336.0625 165.75 336.609375 C 167.941406 337.707031 169.585938 335.777344 170.132812 333.589844 C 170.984375 330.808594 171.53125 327.804688 172.082031 324.785156 Z M 46.121094 208.707031 C 43.648438 199.65625 37.339844 205.683594 32.410156 204.039062 C 32.410156 203.207031 32.125 201.847656 31.863281 200.207031 C 37.621094 199.65625 43.121094 198.824219 48.332031 198.277344 C 48.882812 201.847656 49.164062 204.585938 49.429688 207.875 C 48.597656 208.15625 47.503906 208.15625 46.121094 208.707031 Z M 68.902344 288.003906 C 68.074219 287.171875 67.523438 286.078125 66.429688 284.980469 L 78.785156 274.269531 C 80.972656 276.746094 83.164062 279.199219 85.640625 281.960938 C 85.09375 282.507812 83.996094 283.339844 83.164062 284.148438 C 76.046875 277.863281 73.832031 286.644531 68.902344 288.003906 Z M 52.433594 264.960938 C 51.601562 263.578125 51.050781 262.484375 50.242188 261.125 C 55.171875 258.386719 59.835938 255.628906 65.050781 252.890625 C 65.882812 254.269531 66.429688 255.363281 67.523438 256.722656 C 62.3125 259.480469 57.382812 261.9375 52.433594 264.960938 Z M 70.832031 247.9375 C 72.210938 249.867188 73.570312 250.960938 73.304688 252.058594 C 73.023438 253.152344 71.664062 253.984375 70.832031 254.796875 C 70 253.964844 68.355469 252.867188 68.09375 252.058594 C 67.808594 250.960938 69.453125 249.867188 70.832031 247.9375 Z M 70.832031 247.9375 " fill-opacity="1" fill-rule="nonzero"/><path fill="#ffffff" d="M 195.390625 176.328125 C 203.339844 170.285156 211.03125 164.804688 220.363281 162.332031 C 222.289062 161.785156 224.480469 162.613281 226.40625 163.164062 C 227.785156 163.710938 228.882812 164.542969 230.242188 165.355469 C 232.167969 166.449219 235.738281 167.542969 236.003906 169.1875 C 236.835938 173.023438 236.285156 177.140625 236.285156 181.257812 C 236.285156 181.804688 235.738281 182.355469 235.453125 182.636719 C 228.050781 188.683594 220.644531 194.707031 210.765625 197.183594 C 207.742188 198.015625 206.101562 197.183594 204.722656 194.445312 C 201.980469 188.398438 198.695312 182.636719 195.390625 176.328125 Z M 212.695312 209.253906 C 219.550781 204.871094 225.859375 200.46875 232.453125 196.898438 C 235.738281 195.253906 240.953125 194.425781 243.425781 196.066406 C 246.449219 197.996094 248.925781 203.207031 248.640625 206.777344 C 248.09375 214.464844 243.976562 221.039062 237.667969 225.988281 C 237.382812 226.273438 236.835938 226.273438 236.285156 226.273438 L 234.644531 213.109375 C 229.976562 215.296875 225.859375 217.488281 221.742188 219.417969 C 219.550781 220.511719 218.171875 219.964844 217.074219 217.488281 C 215.695312 214.75 214.054688 211.464844 212.695312 209.253906 Z M 253.570312 162.066406 C 257.6875 173.042969 259.332031 183.46875 254.664062 194.992188 C 248.074219 187.585938 241.765625 180.445312 244.238281 170.019531 C 244.523438 169.1875 245.335938 168.09375 245.882812 167.542969 C 248.074219 165.636719 250.546875 164.257812 253.570312 162.066406 Z M 253.570312 162.066406 " fill-opacity="1" fill-rule="nonzero"/><path fill="#000000" d="M 151.488281 321.214844 C 148.203125 318.476562 144.898438 318.476562 141.347656 320.664062 C 138.058594 322.59375 136.679688 326.976562 137.777344 331.09375 C 138.871094 334.664062 141.894531 336.855469 146.011719 336.855469 L 148.203125 336.855469 C 146.011719 341.519531 143.273438 341.519531 137.230469 336.855469 C 136.398438 337.6875 135.585938 338.234375 134.488281 339.328125 C 139.703125 346.46875 149.035156 347.015625 151.773438 340.425781 C 154.25 334.664062 155.34375 328.617188 157.269531 322.59375 C 155.058594 322.023438 152.871094 322.308594 151.488281 321.214844 Z M 152.039062 329.164062 C 150.109375 330.261719 148.46875 332.1875 146.539062 332.453125 C 143.800781 332.734375 142.15625 330.523438 142.421875 327.785156 C 142.707031 325.046875 144.347656 323.121094 146.804688 323.667969 C 148.730469 324.214844 150.375 326.144531 152.015625 327.238281 L 152.015625 329.164062 Z M 57.097656 178.253906 L 31.578125 178.253906 L 31.578125 182.636719 C 34.316406 182.636719 37.074219 182.921875 39.8125 182.921875 C 39.8125 184.847656 39.8125 186.492188 40.097656 187.851562 C 40.644531 192.515625 43.933594 195.539062 48.597656 195.539062 C 52.980469 195.539062 56.550781 192.800781 57.097656 188.398438 C 57.382812 185.113281 57.097656 181.824219 57.097656 178.253906 Z M 50.789062 189.777344 C 50.242188 190.324219 47.21875 190.609375 46.953125 189.777344 C 45.574219 188.136719 45.027344 185.660156 43.933594 182.921875 L 53.261719 182.921875 C 52.167969 185.660156 51.882812 188.136719 50.789062 189.777344 Z M 132.300781 314.355469 C 129.558594 311.882812 126.539062 311.332031 123.25 312.429688 C 119.679688 313.808594 117.753906 316.8125 117.488281 320.664062 C 117.488281 323.953125 118.871094 327.257812 122.15625 328.617188 C 125.179688 329.996094 128.199219 330.808594 131.75 331.902344 C 133.941406 327.238281 136.132812 322.308594 138.34375 317.359375 C 136.132812 316 133.941406 315.714844 132.300781 314.355469 Z M 127.085938 325.046875 C 125.441406 325.046875 122.96875 322.855469 122.703125 321.214844 C 122.15625 318.738281 124.082031 316.285156 126.820312 316.546875 C 128.75 316.832031 130.390625 318.476562 132.320312 319.570312 L 132.320312 321.496094 C 130.371094 322.855469 128.730469 325.046875 127.085938 325.046875 Z M 115.277344 316.8125 C 118.566406 312.691406 118.566406 308.574219 115.5625 305.289062 C 112.539062 302.003906 107.328125 301.453125 103.757812 304.191406 C 100.1875 306.933594 99.089844 312.144531 101.28125 315.714844 C 103.757812 319.550781 108.421875 321.476562 113.351562 319.003906 C 111.707031 317.90625 110.613281 316.8125 109.234375 316.261719 C 106.496094 315.433594 104.304688 314.074219 104.851562 310.21875 C 108.421875 312.976562 111.707031 314.902344 115.277344 316.8125 Z M 113.636719 312.164062 C 110.898438 310.523438 108.96875 309.144531 106.777344 307.785156 C 110.875 305.835938 112.804688 306.953125 113.636719 312.164062 Z M 189.628906 337.949219 C 186.605469 339.59375 184.699219 338.496094 183.320312 335.210938 L 195.390625 335.210938 C 195.390625 329.164062 193.199219 325.878906 188.53125 325.066406 C 184.699219 324.234375 180.582031 326.445312 178.9375 330.28125 C 177.292969 334.398438 178.652344 339.066406 181.960938 341.539062 C 185.53125 344.015625 190.742188 343.183594 194.03125 339.898438 C 192.933594 337.402344 191.839844 336.855469 189.628906 337.949219 Z M 190.742188 331.640625 L 183.339844 331.640625 C 185.792969 327.804688 187.4375 327.804688 190.742188 331.640625 Z M 74.117188 266.886719 C 72.191406 262.769531 68.074219 260.839844 63.691406 261.957031 C 59.574219 263.050781 56.550781 266.886719 57.097656 271.289062 C 57.382812 275.671875 60.667969 279.242188 66.691406 279.523438 C 65.597656 277.597656 65.3125 276.238281 64.21875 275.40625 C 61.195312 272.933594 60.648438 271.574219 62.574219 268.265625 C 65.050781 271.550781 67.242188 274.574219 69.714844 277.863281 C 74.664062 274.839844 76.046875 271.003906 74.117188 266.886719 Z M 69.1875 272.101562 C 67.808594 270.171875 66.714844 268.265625 65.355469 266.601562 C 65.636719 266.320312 65.902344 266.054688 66.1875 265.507812 C 67.566406 266.339844 69.207031 266.886719 70.019531 267.980469 C 70.851562 269.078125 70.566406 270.71875 70.851562 272.101562 Z M 52.433594 219.417969 C 52.148438 215.296875 49.410156 212.011719 45.289062 211.179688 C 40.910156 210.347656 36.792969 212.558594 35.148438 216.109375 C 33.21875 220.492188 34.863281 225.15625 39.53125 228.179688 C 40.078125 227.347656 40.910156 226.253906 41.457031 225.441406 C 39.265625 222.417969 37.074219 219.679688 40.910156 216.109375 C 42.003906 220.492188 43.101562 224.0625 44.195312 228.179688 C 50.242188 226.820312 52.714844 224.082031 52.433594 219.417969 Z M 46.121094 222.988281 C 45.574219 220.25 45.027344 218.058594 44.480469 215.296875 C 49.144531 217.488281 49.429688 219.679688 46.121094 222.988281 Z M 46.121094 222.988281 " fill-opacity="1" fill-rule="nonzero"/></svg>