<svg xmlns="http://www.w3.org/2000/svg" xmlns:xlink="http://www.w3.org/1999/xlink" width="500" zoomAndPan="magnify" viewBox="0 0 375 374.999991" height="500" preserveAspectRatio="xMidYMid meet" version="1.0"><defs><g/></defs><rect x="-37.5" width="450" fill="#ffffff" y="-37.499999" height="449.999989" fill-opacity="1"/><rect x="-37.5" width="450" fill="#000000" y="-37.499999" height="449.999989" fill-opacity="1"/><g fill="#ffffff" fill-opacity="1"><g transform="translate(110.40916, 261.749983)"><g><path d="M 15.546875 0 L 15.546875 -149.09375 L 80.84375 -149.09375 C 91.769531 -149.09375 101.222656 -147.273438 109.203125 -143.640625 C 117.179688 -140.003906 123.375 -134.859375 127.78125 -128.203125 C 132.195312 -121.554688 134.40625 -113.679688 134.40625 -104.578125 C 134.40625 -95.484375 131.988281 -87.785156 127.15625 -81.484375 C 122.320312 -75.179688 115.988281 -70.835938 108.15625 -68.453125 C 122.851562 -66.359375 130.832031 -57.820312 132.09375 -42.84375 L 135.875 0 L 103.3125 0 L 100.59375 -37.796875 C 100.164062 -43.535156 98.378906 -47.769531 95.234375 -50.5 C 92.085938 -53.226562 86.734375 -54.59375 79.171875 -54.59375 L 47.453125 -54.59375 L 47.453125 0 Z M 47.453125 -81.265625 L 77.28125 -81.265625 C 84.976562 -81.265625 90.960938 -83.050781 95.234375 -86.625 C 99.503906 -90.195312 101.640625 -95.269531 101.640625 -101.84375 C 101.640625 -108.570312 99.46875 -113.648438 95.125 -117.078125 C 90.789062 -120.503906 84.492188 -122.21875 76.234375 -122.21875 L 47.453125 -122.21875 Z M 47.453125 -81.265625 "/></g></g></g></svg>